<?xml version="1.0" encoding="utf-8"?>
<!-- Generator: Adobe Illustrator 24.0.0, SVG Export Plug-In . SVG Version: 6.00 Build 0)  -->
<svg version="1.1" id="OBJECTS" xmlns="http://www.w3.org/2000/svg" xmlns:xlink="http://www.w3.org/1999/xlink" x="0px" y="0px"
	 viewBox="0 0 242.7 191.6" style="enable-background:new 0 0 242.7 191.6;" xml:space="preserve">
<style type="text/css">
	.st0{fill:#F0F0F0;}
	.st1{fill:url(#SVGID_1_);}
	.st2{fill:#FFFFFF;}
	.st3{fill:#C7C7C7;}
	.st4{fill:#482C3B;}
	.st5{fill:#A6AEBA;}
	.st6{fill:#D2DCEB;}
	.st7{fill:#D0DFE1;}
	.st8{fill:#B0BEBF;}
	.st9{fill:#FFE0BC;}
	.st10{fill:#C47C8E;}
	.st11{fill:#F7D4B2;}
	.st12{fill:#0B5A70;}
	.st13{fill:#8B4200;}
	.st14{fill:none;stroke:#482C3B;stroke-width:0.25;stroke-miterlimit:10;}
	.st15{fill:#FFD04D;}
	.st16{fill:#B56537;}
	.st17{fill:#E4DDD7;}
	.st18{fill:#133A50;}
	.st19{fill:#364469;}
	.st20{fill:#E9F2F4;}
	.st21{fill:none;stroke:#AEBFDE;stroke-width:0.25;stroke-miterlimit:10;}
	.st22{fill:#97A3CC;}
	.st23{fill:url(#_Path_3_1_);}
	.st24{fill:#DBDBDB;}
	.st25{fill:none;stroke:#E9F2F4;stroke-miterlimit:10;}
	.st26{fill:#00A0B4;}
</style>
<title>details-2-office-team-work</title>
<g>
	<path class="st0" d="M83.6,57.7c46-16.6,80.7-88.8,134.9-30.6s9.2,146.4-56,156.9S21.6,165.9,8,119.5
		C-15.2,40.2,52.7,68.8,83.6,57.7z"/>
	
		<linearGradient id="SVGID_1_" gradientUnits="userSpaceOnUse" x1="-268.3427" y1="847.787" x2="-23.2854" y2="847.787" gradientTransform="matrix(-0.946 -0.19 -0.189 0.945 142.2502 -743.2598)">
		<stop  offset="0" style="stop-color:#12DA62"/>
		<stop  offset="1" style="stop-color:#C7E09C"/>
	</linearGradient>
	<path class="st1" d="M80.3,52.9c46-16.6,80.7-88.8,134.9-30.6s9.2,146.4-56,156.9s-140.9-18-154.4-64.4
		C-18.5,35.4,49.4,64,80.3,52.9z"/>
	<path class="st2" d="M149.3,27.3l-0.5-1.3l-0.5,1.3c-0.5,1.2-1.4,2.2-2.6,2.6l0,0c1.2,0.5,2.1,1.4,2.6,2.6l0.5,1.3l0.5-1.3
		c0.5-1.2,1.4-2.2,2.6-2.6l0,0C150.7,29.5,149.8,28.5,149.3,27.3z"/>
	<path class="st2" d="M97.2,124.6l-0.5-1.3l-0.5,1.3c-0.5,1.2-1.4,2.2-2.6,2.6l0,0c1.2,0.5,2.1,1.4,2.6,2.6l0.5,1.3l0.5-1.3
		c0.5-1.2,1.4-2.2,2.6-2.6l0,0C98.6,126.8,97.7,125.8,97.2,124.6z"/>
	<path class="st2" d="M223.4,62.6l-0.3-0.9l-0.3,0.9c-0.3,0.8-0.9,1.4-1.7,1.7l0,0c0.8,0.3,1.4,0.9,1.7,1.7l0.3,0.9l0.3-0.9
		c0.3-0.8,0.9-1.4,1.7-1.7l0,0C224.4,64,223.7,63.4,223.4,62.6z"/>
	<path class="st2" d="M76.9,72.3l-0.3-0.9l-0.3,0.9c-0.3,0.8-0.9,1.4-1.7,1.7l0,0c0.8,0.3,1.4,0.9,1.7,1.7l0.3,0.9l0.3-0.9
		c0.3-0.8,0.9-1.4,1.7-1.7l0,0C77.8,73.7,77.2,73.1,76.9,72.3z"/>
	<polygon class="st3" points="55.9,191.3 57.6,191.3 71.6,123 68.1,123 	"/>
	<polygon class="st3" points="188,191.3 186.3,191.3 172.3,123 175.8,123 	"/>
	<path class="st4" d="M53.6,81.9c-0.6,0.6-0.9,1.4-1.1,2.2c0.2-0.6,0.6-1.2,1.1-1.6c0.7-0.4,1.6-0.4,2.4-0.8
		c0.6-0.5,1.1-1.1,1.3-1.9c-0.5,0.5-1.1,0.8-1.8,1.1C54.8,81,54.1,81.4,53.6,81.9z"/>
	<rect x="59.6" y="158.4" class="st5" width="2.6" height="25.3"/>
	<rect x="58.9" y="154.7" class="st6" width="4.2" height="3.7"/>
	<rect x="59.4" y="173.9" class="st6" width="3.2" height="7.9"/>
	<rect x="58.9" y="181.8" class="st6" width="4.2" height="3.7"/>
	<rect x="55.9" y="147.7" class="st5" width="10.2" height="7"/>
	<path class="st5" d="M47.8,145.6h27.3c0.3,0,0.5,0.2,0.5,0.5v4.1c0,0.3-0.2,0.5-0.5,0.5H47.8c-0.3,0-0.5-0.2-0.5-0.5v-4.1
		C47.3,145.9,47.5,145.6,47.8,145.6z"/>
	<polygon class="st5" points="50.8,189 58.8,185 58.8,182.2 49.8,188.3 	"/>
	<circle class="st5" cx="49.8" cy="189.8" r="1.9"/>
	<circle class="st5" cx="60.9" cy="189.8" r="1.9"/>
	<polygon class="st5" points="71,189 63,185 63,182.2 72.1,188.3 	"/>
	<circle class="st5" cx="72.1" cy="189.8" r="1.9"/>
	<rect x="60.4" y="183.6" class="st5" width="1" height="6.1"/>
	<path class="st7" d="M42.6,148.5c-0.9,0-1.8-0.6-2-1.5c-0.7-2.8-1.9-8.1-2-21.3c-0.1-10.2-1.5-20.4-4.1-30.2
		c-0.3-1.3,0.3-2.6,1.4-3.3l0,0c0.6-0.4,1.3-0.5,2-0.5h25.3c0,0,10.4,18.6,11.7,24.9s3.3,30.8,3.3,30.8L42.6,148.5z"/>
	<path class="st8" d="M43.4,148.5c0,0-2.4-4.6-2.4-22.8c0-15-3-27.3-3.9-32.1c-0.2-0.9,0.4-1.8,1.4-1.9c0.1,0,0.2,0,0.3,0h26.9
		c0,0,10.4,18.6,11.7,24.9s3.3,30.8,3.3,30.8L43.4,148.5z"/>
	<path class="st7" d="M67.9,148.5H42.3c-0.7,0-1.3-0.6-1.3-1.3l0,0l0,0V143h26.9V148.5L67.9,148.5L67.9,148.5z"/>
	<path class="st8" d="M85.1,148.5H47.3v-3.9c0-0.9,0.7-1.6,1.6-1.6c0,0,0,0,0,0h36.1c0.9,0,1.6,0.7,1.6,1.6l0,0l0,0v2.3
		C86.7,147.8,86,148.5,85.1,148.5L85.1,148.5L85.1,148.5L85.1,148.5z"/>
	<path class="st9" d="M51.1,85.2c0,0,3.9-1.2,4.3-2.9c0.3-1.4,0.8-5.7,0.8-5.7H63c-0.1,1.7-0.1,3.4,0,5.1c0.6,3.1,4.5,4.1,4.5,4.1
		l0.6,9.6l-10,8.4l-9.7-9.7L51.1,85.2z"/>
	<path id="_Path_" class="st9" d="M66.7,66.1c1.7,2.3,1.4,2.6,1.1,5.8c-0.2,2.2-0.6,4.4-1.4,6.5c-0.5,1.2-2.9,6.3-7.2,4.4
		c-2.5-1.1-4.5-3-5.9-5.3c-0.6-1.8-0.9-3.8-0.9-5.7c0-2.1-0.1-4.8,0-6.4C52.7,59.9,63.5,61.9,66.7,66.1z"/>
	<path class="st10" d="M77.9,131.1c3.7-0.8,5.8,0.4,8,3.1s1.3,9.1,0,14.5s-6.5,41-6.5,41h-3.8c0,0-1-14-1.6-24.3s1.6-24.9,1.6-24.9
		l-14.5-9.3C61.2,131.1,74.6,131.8,77.9,131.1z"/>
	<path class="st10" d="M77.7,126c2.8,2.7,11.2,7.1,9.5,12.7l-11.2,4.7c0,0-11.4-4.1-14.9-12.2l-3.5-8.1l7.5-3L77.7,126z"/>
	<path class="st10" d="M69.6,133.1c2.1,1.5,7.6,3.9,6.5,10.3c-0.6,3.2-9.7,22.7-14.6,30.9c-2.5,4.2-7.1,12.9-7.1,12.9l-4.2,1
		c0,0,3.3-10.6,5.5-20.4s8.7-21.5,8.7-21.5c-2.7-1.8-5.5-3.4-8.4-4.8c-3.6-1.6-5.5-2.2-0.1-7.3S65.5,130.2,69.6,133.1z"/>
	<path class="st11" d="M77.7,102.9c0.5,2.2,1.2,4.4,2.2,6.4c0.9,1.6,19.3,8.3,19.3,8.3H88.5c0,0-10.2-1.3-13.1-5.3
		c-2.1-3-4-6.2-5.6-9.5L77.7,102.9L77.7,102.9z"/>
	<path class="st12" d="M71.2,87.2c1.9,0.8,3.7,5.6,5.1,9.7c0.7,1.9,1.3,4,1.5,6c0,0-4.9,2.8-7.5,2.1c0,0-2.5-8.9-0.8-13.4L71.2,87.2
		z"/>
	<path class="st12" d="M61.7,126.3c5.4-0.2,10.7-0.3,16.1-0.3c-2.6-1.7-4.9-2.9-5.4-3.4c-1.1-1.1-0.7-11,0.1-14.1s0.8-6.7,0.2-8.2
		s-1.4-13.1-1.4-13.1l-3.6-1.3c0,0,1.1,8.3-7.6,8.3c-8.8,0-8.8-8.9-8.8-8.9l-5.6,1.2c0,0-0.4,10.8-0.2,15.8s2.5,13.4,3.2,17.9
		c0.5,3.5-0.4,5.6-1.1,8.1C52,126.6,56.8,126,61.7,126.3z"/>
	<path class="st13" d="M54.6,186.5c-1.2-0.2-1.6,0.2-2.7,1c-0.7,0.4-1.5,0.7-2.3,0.7v3.2H58L54.6,186.5z"/>
	<path class="st13" d="M80.2,187.1c0,0-0.1,1.1-1.9,1.6c-1.1,0.3-2.3-0.1-3-1l-0.4,3.7l14.3,0.1L80.2,187.1z"/>
	<path class="st9" d="M80.4,116.8c-1.6-0.2-3.1-1.7-9.3-1.8c-3.5-0.5-7-1.2-10.5-2c-2.1-0.6-4.1-1.4-5.9-2.6c0,0-2.3-8.5-3.1-13.8
		c-2.5-0.3-5-0.6-7.5-1c-0.1,6.7,4.7,18.6,6.2,19.8c3.1,2.3,10.3,2.2,12.1,2.2c4,0.1,21.2,0.5,21.2,0.5S84.9,117.3,80.4,116.8z"/>
	<path class="st12" d="M53.6,105.1c0,0-2.3-13.4-2.9-14.8c-3.4-7.3-8.1-3.4-7.4,2.2c0.3,2.4,0.5,8.6,1.7,14.5
		C47.9,107,50.9,106.4,53.6,105.1z"/>
	<polygon class="st5" points="76.8,118.2 83.6,118.2 90.3,94.5 85.2,94.5 	"/>
	<polygon class="st6" points="78.7,118.2 105.1,118.2 111.9,94.5 85.5,94.5 	"/>
	<rect x="74.9" y="117.6" class="st6" width="30.3" height="1.8"/>
	<rect x="59.7" y="117.6" class="st5" width="15.1" height="1.8"/>
	
		<ellipse transform="matrix(0.3886 -0.9214 0.9214 0.3886 -41.4793 154.6682)" class="st5" cx="95.8" cy="108.6" rx="3.6" ry="2.8"/>
	<path class="st10" d="M47.4,128.3c-1,4.8,1.4,15.3,17,18l8.9,3.6c2.2-2.7,3-6.1,2.4-9.5c-1.1-5.5-7.4-7.6-11.5-14.2
		c0,0-6.5-2.7-10.6-1.3C51.3,125.6,49.2,126.8,47.4,128.3z"/>
	<path class="st4" d="M68,69.4c0,0-1.9,0.1-4.2-3.4c0,0,0.2,1.6-2,3.7s-4.3,1.5-4.6,2.6c-0.2,0.6-0.3,1.3-0.4,1.9
		c-0.3-0.1-0.6-0.3-0.7-0.6c-0.2-0.5-0.4-1.1-0.8-1.5c-1-0.7-2.8,0.2-2.2,2.2c0.3,0.9,0.9,1.6,1.7,2.1c0,3.4,1.4,4.4,1.4,4.4
		s-2.3,1-3.5,0.6c-1.7-0.7-2.1-1.8-2.1-3.6c-0.8-0.2-1.6-0.6-2.3-1.2c-2.3-2.3,0.4-9,1.4-9.8c0,0-2.6-3.6,0.7-6.1
		c3.3-2.5,4.5,1.5,4.5,1.5c1.1-0.8,5.5-1.1,7.8-0.2C69.3,64.4,68,69.4,68,69.4z"/>
	<path class="st14" d="M63.7,66c0.2,1.3,0,4.3-3.5,6.7"/>
	<rect x="206.2" y="158.4" class="st5" width="2.6" height="25.3"/>
	<rect x="205.4" y="154.7" class="st6" width="4.2" height="3.7"/>
	<rect x="205.9" y="173.9" class="st6" width="3.2" height="7.9"/>
	<rect x="205.4" y="181.8" class="st6" width="4.2" height="3.7"/>
	<rect x="202.4" y="147.7" class="st5" width="10.2" height="7"/>
	<path class="st5" d="M193.4,145.6h27.3c0.3,0,0.5,0.2,0.5,0.5v4.1c0,0.3-0.2,0.5-0.5,0.5h-27.3c-0.3,0-0.5-0.2-0.5-0.5v-4.1
		C192.8,145.9,193.1,145.6,193.4,145.6z"/>
	<polygon class="st5" points="217.6,189 209.6,185 209.6,182.2 218.6,188.3 	"/>
	<circle class="st5" cx="218.6" cy="189.8" r="1.9"/>
	<circle class="st5" cx="207.5" cy="189.8" r="1.9"/>
	<polygon class="st5" points="197.4,189 205.4,185 205.4,182.2 196.3,188.3 	"/>
	<circle class="st5" cx="196.3" cy="189.8" r="1.9"/>
	<rect x="207" y="183.6" class="st5" width="1" height="6.1"/>
	<path class="st7" d="M225.9,148.5c0.9,0,1.8-0.6,2-1.5c0.7-2.8,1.9-8.1,2-21.3c0-14.5,7.6-25.6,8.7-30.2c0.3-1.3-0.3-2.6-1.4-3.3
		l0,0c-0.6-0.4-1.3-0.5-2-0.5h-29.9c0,0-10.4,18.6-11.7,24.9s-3.3,30.8-3.3,30.8L225.9,148.5z"/>
	<path class="st8" d="M225,148.5c0,0,2.4-4.6,2.4-22.8c0-15,7.6-27.3,8.5-32.1c0.2-0.9-0.4-1.8-1.4-1.9c-0.1,0-0.2,0-0.3,0h-31.5
		c0,0-10.4,18.6-11.7,24.9s-3.3,30.8-3.3,30.8L225,148.5z"/>
	<path class="st7" d="M192.3,143h35.1v4.2c0,0.7-0.6,1.3-1.3,1.3c0,0,0,0,0,0h-33.8V143L192.3,143z"/>
	<path class="st8" d="M183.4,143H195c0.9,0,1.6,0.7,1.6,1.6v0l0,0v3.9h-13.3c-0.9,0-1.6-0.7-1.6-1.6v-2.3
		C181.7,143.7,182.5,143,183.4,143z"/>
	<path class="st11" d="M198.5,86.2c-2.4,2.4-2.6,14.6-5.1,20.9c0,0-16.8,6.6-24.4,8.5l2.7,2.8c0,0,22.7-5.5,25.6-7.4
		c4.4-2.9,7-14.8,7.4-20.7S201,83.6,198.5,86.2z"/>
	<path class="st11" d="M170.9,116l-1.9-0.4c0,0-3.8-0.4-5.1-0.5s-2.7,1.2-4.4,1.8c-1.2,0.4-2.3,0.9-3.3,1.6h1.3l2.7,0.4l2.5-0.4
		c1.5-0.1,3.1-0.1,4.6,0c1.4,0.1,2.8,0.1,4.2,0L170.9,116z"/>
	<path class="st11" d="M187.5,128.3c-5.2,1.7-11.6,4.5-13.5,6.2s-5.6,4.2-2.6,13.8c1.9,6.1,10.2,37,10.2,37l4.2-0.7
		c0,0-1.5-17.9-3-31.3c-0.7-6.5-1-8.3-1-8.3l5.6-2.3c7.1-2.9,4.7-15.2,4.7-15.2L187.5,128.3z"/>
	<path class="st9" d="M175.8,132.6c-1.9,1.7-3.2,1.2-6,10.8c-1.8,6.1-8.3,37.1-8.3,37.1l3.9,1.7c5.3-14.8,5.3-14.8,11.4-26.8
		c1.9-3.7,3.3-7.6,4.2-11.6l11.4-0.7c7.1-2.9,4.7-13.3,4.7-13.3S177.7,130.9,175.8,132.6z"/>
	<path class="st15" d="M219.1,123.4c0,5,3.6,10.5-0.6,16.2c-3.8,5.1-26,3.5-26,3.5s3.1-5.4,0.2-9.5c-1.9-2.6-6.3-5-6.3-5l12.4-4
		l10-7.7L219.1,123.4z"/>
	<path class="st16" d="M206.6,85.1c-0.7,2.3-5.4,2.2-8.9-2s-6.1-11.5-2.6-16.6s8.2,4.8,9.8,10.1C205.8,79.3,206.4,82.2,206.6,85.1z"
		/>
	<path class="st9" d="M195.5,66.3c-0.9,1.1,0,5.4,0.1,6c0.3,1.2-0.3,2.9,0.1,3.2c0.4,0.2,0.7,0.2,1.1,0.2c0.1,0,1.7,3.3,2,3.9
		c0.4,1,2.8-0.8,3.6,0c0.5,0.6,0.5,1.6,0.7,2.9l-1.4,5.7l11.4-2.2c-1.6-2.3-3-4.7-4.2-7.2c-0.9-2.3,0.2-4.8-0.1-7.8s-1.6-7-6-7.4
		C200.2,63.2,197.4,64.3,195.5,66.3z"/>
	<path class="st17" d="M199.2,123.9c2.5-0.4,5.1-0.4,7.7,0c4.8,0.6,11.8-0.7,11.8-0.7s-2.9-14.9-2.7-21.6s0.7-14,0.7-14L204,85.4
		c0,0-3.1,1.1-4.8,6S197.7,117.7,199.2,123.9z"/>
	<path class="st18" d="M203.2,82.5c-0.9,0.9-4,2.1-4,3.5s-2.4,12.8-2.3,15.2s1,11.5,0.5,14.3c-0.4,3-0.5,6-0.5,9l2.3-0.5
		c0,0-0.7-15.8,0-21.7s4.8-16.7,4.8-16.7l-1.6-0.5L203.2,82.5z"/>
	<path class="st18" d="M207.8,85.6l-3.8-0.1c0,0-1.3,5.9-1.3,17.1c0.2,7.5,0.8,14.9,1.9,22.3c2.2,0.8,4.6,1.2,6.9,1.3
		c2.4,0.1,4.8-0.4,7-1.3c-0.4-6.1-0.4-12.2,0-18.3c0.7-9.1,3.1-11.1,2.6-17.1c-0.8-9.8-9.7-6.4-9.7-6.4L207.8,85.6z"/>
	<path class="st15" d="M204,85.4c0,0,6.1-2.9,7.1-4.8c0.3,0.8,0.5,1.6,0.5,2.4c-0.1,0.8-6,6.4-6,6.4L204,85.4z"/>
	<path class="st16" d="M209,86.1c1.5-7.6-2.5-9.8-6.9-12.5c-2.8-1.9-5.2-4.3-7-7.2c0,0,1.7-5.5,6.7-6.7s11.3,2,12.9,9.8
		c1.1,5.6,2.6,7.5,6.4,10.2c4.5,3.3,5.9,11.6,0.6,15.6c-4.9,3.7-2.1-5.1-3.9-10.1c-0.3-0.8-4.1,3.4-6.2,4.1
		C209.3,90.2,208.8,87.4,209,86.1z"/>
	<path class="st15" d="M203.2,82.5c-0.2,1,0.1,2.1,0.8,2.9l-2.3,3.2c0,0-0.7-2.5,0-3.6S203.2,82.5,203.2,82.5z"/>
	<path class="st18" d="M181.3,183.1c0,0,0.1,1.1,1.9,1.6c1.1,0.3,2.3-0.1,3-1l0.4,3.7l-5.8,4.1h-4.8l2.6-2.9L181.3,183.1z"/>
	<path class="st18" d="M162.1,178c-0.5,0.9-0.2,2.1,0.7,2.6c1,0.6,2.2,0.6,3.2,0l-0.7,3.6l-13.6-4.3L162.1,178z"/>
	<path class="st9" d="M214.9,87.3c-1.3,3.2-5.2,13.6-7.6,19.9c0,0-17.9,5.7-25.5,7.7l2.7,2.8c0,0,21.8-3.3,26.5-5.5
		c4.8-2.2,9.3-17.6,10.1-21.6C222.2,84.7,216.3,83.9,214.9,87.3z"/>
	<path class="st9" d="M183.6,115.3l-1.9-0.4c0,0-3.8-0.4-5.1-0.5s-2.7,1.2-4.4,1.8c-1.2,0.4-2.3,0.9-3.3,1.6h1.3l2.7,0.4l2.5-0.4
		c1.5-0.1,3.1-0.1,4.6,0c1.4,0.1,2.8,0.1,4.2,0L183.6,115.3z"/>
	<path class="st19" d="M146.2,52l4.9,11.2l-1.2,0.5l-4.9-11.3c-0.1-0.1,0-0.3,0.1-0.3l0,0l0.8-0.3C146,51.8,146.1,51.9,146.2,52z"/>
	<path class="st19" d="M146.1,54.8l0.8-0.3l-1.4-3.2c-0.1-0.2-0.4-0.3-0.6-0.2l0,0c-0.2,0.1-0.3,0.4-0.2,0.6L146.1,54.8z"/>
	<path class="st11" d="M136.9,65.3c0,0,4.8,13.1,6.5,13c1.3,0,10-12,11.4-14s4.1-6.9,4.1-6.9l-3.5-1.1c0,0-6.1,7.4-7.7,8.7
		s-2.2,1.8-2.2,1.8l-1.8-5L136.9,65.3z"/>
	<path class="st19" d="M139.5,51.7c1.9,0.5,2.6,2.2,3.4,5.7c0.6,2.3,1.2,4.6,2,6.9l-6.3,2.9c0,0-1.1-6.3-1.6-10.2
		S137.8,51.2,139.5,51.7z"/>
	<path class="st18" d="M113.6,186.5v4.6h8.9c0,0-0.3-1.7-4.6-2.5l-0.6-2.2L113.6,186.5L113.6,186.5z"/>
	<path class="st18" d="M132.4,186.5v4.6h8.9c0,0-0.3-1.7-4.6-2.5l-0.6-2.2L132.4,186.5L132.4,186.5z"/>
	<path class="st18" d="M115.5,93c0,0-1.6,14.7-1.7,30.6s-1,62.9-1,62.9h6.4c0,0,6.6-45.5,9-55.7c2.4-10.2,8.6-37.6,8.6-37.6
		L115.5,93z"/>
	<path class="st9" d="M125.3,39.4c0,0-0.4,3.2-0.8,4.9c-0.2,1-0.5,2-0.9,3c-1.2,1.6-2.5,3.1-4,4.5c0,0,10.6,5.6,13.7,5.6
		s2-6.3,2-6.3s-3.4-2.7-3.9-4c-0.4-1.7-0.7-3.5-0.8-5.3L125.3,39.4z"/>
	<path class="st18" d="M129.4,109.2c0,0,1.2,24.1,1.4,28.9s0,48.4,0,48.4s6,0.2,6,0s5.7-46,6.4-57.7s0.3-25.6,1.3-27.2
		s-2.6-8.4-2.6-8.4l-8.5,2.3L129.4,109.2z"/>
	<path class="st20" d="M121.9,48.7L111,53.4c0,0,2.2,8.8,2.3,12.3c0.1,3.5,1.4,31.2,1.4,31.2s3.3,5.2,19.5,3.1
		c6.2-0.8,9.3-3.8,9.3-3.8s-1.7-30.5-2.2-34s-1.7-10.5-1.7-10.5l-5.3-1.6l-2.1,3.2L121.9,48.7z"/>
	<path class="st21" d="M134.9,94.6"/>
	<path class="st21" d="M132.1,53.2"/>
	<polygon class="st19" points="122.4,46.8 132.1,53.2 129.4,56.3 121.9,48.7 	"/>
	<polygon class="st19" points="132.1,53.2 134.7,55.4 134.2,50.1 133.2,48.7 	"/>
	<path id="_Path_2" class="st22" d="M142.3,72.3l9.3,2.7c1,0.3,2-0.2,2.5-1.1l9.1-19.4c0.4-0.7,0.1-1.6-0.6-1.9
		c-0.1-0.1-0.2-0.1-0.3-0.1l-9.2-2.7c-1.7-0.2-2.5,0.2-2.9,1.1L140.9,70C140.5,70.9,140.7,71.5,142.3,72.3z"/>
	
		<linearGradient id="_Path_3_1_" gradientUnits="userSpaceOnUse" x1="-120.5053" y1="635.1944" x2="-96.2093" y2="634.9394" gradientTransform="matrix(-0.923 -0.32 -0.451 0.927 343.8483 -559.2208)">
		<stop  offset="0" style="stop-color:#EEF4FB"/>
		<stop  offset="0.311" style="stop-color:#E3EDF8"/>
		<stop  offset="1" style="stop-color:#CFE1F3"/>
	</linearGradient>
	<path id="_Path_3" class="st23" d="M142.8,72.5l9.4,2.7c1,0.3,2-0.2,2.5-1.1l9.1-19.5c0.4-0.7,0.1-1.6-0.6-2
		c-0.1-0.1-0.2-0.1-0.3-0.1l-9.3-2.7c-1-0.3-2.1,0.2-2.6,1.1l-9.2,19.4c-0.4,0.8-0.1,1.7,0.7,2C142.6,72.4,142.7,72.4,142.8,72.5z"
		/>
	<path class="st9" d="M115.8,67.3c0,0,8.7,14.4,9.8,14.9s16.1-9.2,18.9-11s5.2-3.6,5.5-3.9c0.5-1,0.9-2.1,1.2-3.2
		c-0.1-0.2-0.3-0.3-0.4-0.5l-0.4,0.2l0.2-1.2l-0.4-0.7l-0.3,0.1l-0.1-1.2l-0.5-0.9c0,0-1.5,1.7-2.4,2.7c-0.6,0.6-1.3,1.2-2,1.7
		c0-0.6,0-1.3,0-1.9c0-0.5,0-0.9,0.2-1.4l-1.4,0.9c0,0-1.3,4-1.5,4.3c-0.8,1.9-2.4,3.4-4.4,4.1c-3.2,1.2-6.4,2.3-9.6,3.3
		c0.2,0-5.6-10.7-5.6-10.7L115.8,67.3z"/>
	<path class="st19" d="M110.6,58.8c0.8,3.9,6.6,12.5,6.6,12.5l7-5.3c0,0-2.8-5.5-4.3-8.4c-1.7-3.2-3.3-7.1-6.3-5.9
		C110.7,52.8,109.9,55.7,110.6,58.8z"/>
	<path class="st9" d="M137.7,31.2c0.8,0.7,2,2,1.9,2.8c-0.1,1.5-0.3,3-0.7,4.5c-0.4,1.3-1.2,4.8-1.7,6.3s-1.2,3.6-1.7,3.8
		c-1.8,0-3.6-0.4-5.3-1.1c-0.8-0.6-4.9-5.1-4-8.4c0,0-1.1,0.1-1.7-3.2c-0.2-0.9,3.3-3.3,3.9-4.1c1.3-2.1,6.1-0.4,7.5-0.3
		C136.4,31.6,137.1,31.5,137.7,31.2z"/>
	<path class="st13" d="M139.6,34c-0.1-0.6-0.7-1-1.3-0.9h0c-1.6,0.2-3.2,0.1-4.8-0.3c-1-0.3-2-0.8-3-1.4c-0.2,0.9-0.5,1.8-1,2.5
		c-0.5,0.6-0.9,1.3-1.1,2.1c-0.2,0.4-0.6,0.7-1,0.9c0,0-0.4-1.9-1.2-2c-1.6-0.3-1.4,2-0.8,2.7c0.4,0.5,0.9,0.9,1.4,1.3
		c-0.1,0.6-0.3,1.1-0.5,1.6c-0.4,0.6-0.8,1.2-1.4,1.7c0,0-0.4-4.4-1.5-6.4s-1-5.8,2-6.5c0.5-2.1,2.5-3.5,4.7-3.2
		c4,0.2,7.1,1.8,8.9,1.6c0.8,0,1.6-0.2,2.3-0.5c0,0,0.9,2.9-0.3,4.4C140.4,32.2,139.9,33.1,139.6,34z"/>
	<polygon class="st5" points="171.4,118.2 167.7,118.2 164,94.5 166.8,94.5 	"/>
	<polygon class="st6" points="170.3,118.2 155.9,118.2 152.2,94.5 166.6,94.5 	"/>
	<rect x="155.7" y="117.6" class="st6" width="15.7" height="1.8"/>
	<rect x="171.4" y="117.6" class="st5" width="19.8" height="1.8"/>
	<path class="st5" d="M162.4,107.5c0.4,1.8,0.1,3.8-0.7,4.4s-1.8-0.4-2.2-2.2s-0.1-3.8,0.7-4.4S162,105.7,162.4,107.5z"/>
	<rect x="29.8" y="119.6" class="st24" width="178.1" height="3.4"/>
	<polygon class="st24" points="48.8,191.3 50.5,191.3 64.5,123 61,123 	"/>
	<polygon class="st24" points="180.9,191.3 179.2,191.3 165.2,123 168.8,123 	"/>
	<rect x="164.5" y="27.7" class="st20" width="24" height="23.8"/>
	<rect x="168.1" y="31.3" class="st2" width="8.4" height="17"/>
	<rect x="164.5" y="23.1" class="st25" width="24" height="4.6"/>
	<circle class="st26" cx="182.6" cy="34.1" r="3"/>
	<polygon class="st2" points="182.4,35.2 181,33.5 182.3,34 185.2,31.5 	"/>
	<circle class="st26" cx="182.6" cy="42.9" r="3"/>
	<polygon class="st2" points="182.4,44.1 181,42.3 182.3,42.9 185.2,40.3 	"/>
</g>
</svg>
