<?xml version="1.0" encoding="utf-8"?>
<!-- Generator: Adobe Illustrator 24.0.0, SVG Export Plug-In . SVG Version: 6.00 Build 0)  -->
<svg version="1.1" id="Layer_3" xmlns="http://www.w3.org/2000/svg" xmlns:xlink="http://www.w3.org/1999/xlink" x="0px" y="0px"
	 viewBox="0 0 165.9 41.6" style="enable-background:new 0 0 165.9 41.6;" xml:space="preserve">
<style type="text/css">
	.st0{fill:#12DA62;}
	.st1{fill:#FFFFFF;}
	.st2{fill:#393939;}
</style>
<title>logo</title>
<g>
	<path class="st0" d="M40.9,10.8c-1.5-5.4-4.6-9-11.1-10.2c-4.8-0.8-13-0.7-16.9-0.2C1.2,2.5,0.1,10.2,0.1,21.8
		c0,11.3,2.5,17.9,13.6,19.5c2.8,0.3,11.6,0.6,16.3-0.3c5.9-1.4,9.5-4.2,11-10.9C42,25.6,42,15.5,40.9,10.8z"/>
	<path class="st1" d="M21.8,36.2c-1.1,0-2.1-1-2.1-2.1v-4.5c0-1.1,1-2.1,2.1-2.1c1.1,0,2.1,1,2.1,2.1v4.5
		C23.9,35.2,22.9,36.2,21.8,36.2z"/>
	<path class="st1" d="M21.3,31.7c-2.5,0-4.6-0.6-6.4-1.8c-2.5-1.5-3.9-4.4-3.9-7.5c0-3,1.3-5.5,3.5-7.2c2.2-1.8,5.5-2.5,8.5-2.1
		L27,6.9c0.7-1.1,2-1.4,2.9-0.8c1,0.7,1.3,2,0.6,3l-4.9,7.5c-0.4,0.7-1.4,1.1-2.2,0.8c-2.4-0.6-4.8-0.1-6.4,1.1
		c-0.8,0.7-1.8,2-1.8,3.9c0,1.7,0.7,3.1,2,3.9c1.3,0.8,2.8,1.1,4.6,1.1c2.9-0.1,4.2-1.7,4.6-2.8h-2.7c-1.1,0-2.1-1-2.1-2.1
		s1-2.1,2.1-2.1l5,0.1c1.1,0,2.1,1,2.1,2.1v1.1c0,3.1-2.8,7.7-9,8C21.7,31.7,21.6,31.7,21.3,31.7z"/>
	<path class="st1" d="M16.7,12c-0.6,0-1.3-0.3-1.7-0.8l-1.5-2c-0.7-0.8-0.6-2.3,0.4-3c1-0.7,2.2-0.6,2.9,0.3l1.5,2.1
		c0.7,0.8,0.6,2.3-0.4,3C17.6,11.9,17.1,12,16.7,12z"/>
	<g>
		<path class="st2" d="M52.3,13c-0.6-0.1-0.9-0.4-1-1c0.1-0.6,0.4-0.9,1-1h6.6V8.1C59,7.4,59.4,7,60.2,6.9c0.7,0.1,1.1,0.5,1.1,1.2
			v2.8h7.5V8.1c0.1-0.7,0.5-1,1.2-1.1c0.7,0.1,1,0.5,1.1,1.1v2.8H78c0.6,0.1,0.9,0.4,1,1c-0.1,0.6-0.4,0.9-1,1h-6.8v2
			c-0.1,0.7-0.5,1.1-1.1,1.1c-0.8-0.1-1.2-0.5-1.2-1.1v-2h-7.5v1.9c-0.1,0.8-0.4,1.2-1.1,1.2c-0.8-0.1-1.2-0.5-1.2-1.2V13H52.3z
			 M58.9,33.7c-3.3,0-5-1.1-5-3.2c-0.1-1.4,0.7-2.6,2.4-3.7c2.7-1.9,6.8-4.2,12.2-6.9c0.1-0.1,0.1-0.3,0-0.3H55.9
			c-0.7-0.1-1.1-0.4-1.1-1c0.1-0.6,0.5-0.9,1.1-1h16.7c0.7,0.1,1.2,0.5,1.2,1.1c0,0.8-0.4,1.3-1.2,1.7c-6.3,3-11.1,5.6-14.5,7.9
			c-1,0.8-1.5,1.4-1.5,1.9c0.1,0.9,1.1,1.4,2.9,1.4h10.7c3.3,0.1,5-0.7,5.2-2.4c0.1-0.4,0.3-1.3,0.3-2.6c0.1-0.3,0.1-0.5,0.1-0.7
			c0.1-0.7,0.6-1.1,1.5-1c0.7,0.2,1,0.6,0.9,1.5c-0.2,1.6-0.4,2.9-0.7,3.9c-0.4,2.3-2.6,3.4-6.8,3.4H58.9z"/>
		<path class="st2" d="M94.6,30.6h7.8c0.9,0,1.5-0.2,1.8-0.5c0.3-0.3,0.5-1,0.6-2.1c0-0.3,0.2-0.5,0.4-0.7c0.3-0.1,0.5-0.2,0.8,0
			c0.4,0.1,0.6,0.3,0.8,0.6c0.2,0.2,0.3,0.5,0.3,0.8c0,0.1,0,0.2,0,0.2c-0.2,1.6-0.7,2.6-1.3,3.2c-0.6,0.5-1.8,0.8-3.3,0.8h-8
			c-2,0-3.4-0.3-4.1-0.8c-0.7-0.5-1.1-1.5-1.1-3V22c0-0.2-0.1-0.2-0.2-0.2h-2.2c-0.1,0-0.2,0.1-0.2,0.2v1.4c0,3.8-1.1,6.8-3.3,9
			c-0.2,0.2-0.5,0.3-0.8,0.3c0,0-0.1,0-0.1,0c-0.3,0-0.6-0.2-0.9-0.4c-0.2-0.2-0.3-0.5-0.3-0.9s0.1-0.6,0.3-0.9
			c1.8-1.8,2.6-4.2,2.6-7.2V22c0-0.2-0.1-0.2-0.2-0.2h-1.6c-0.3,0-0.6-0.1-0.9-0.4c-0.2-0.2-0.4-0.5-0.4-0.9s0.1-0.6,0.4-0.9
			c0.2-0.2,0.5-0.4,0.9-0.4H93c0.3,0,0.6,0.1,0.9,0.4c0.2,0.2,0.4,0.5,0.4,0.9s-0.1,0.6-0.4,0.9c-0.2,0.2-0.5,0.4-0.9,0.4h-1
			c-0.2,0-0.2,0.1-0.2,0.2v7.3c0,0.6,0.2,1,0.5,1.1C92.6,30.6,93.4,30.6,94.6,30.6z M84.7,10.7c-0.1,0-0.2,0.1-0.2,0.2v1.2
			c0,0.4-0.1,0.7-0.4,0.9c-0.3,0.3-0.6,0.4-0.9,0.4c-0.4,0-0.7-0.1-0.9-0.4s-0.4-0.6-0.4-0.9V9.9c0-0.4,0.2-0.8,0.5-1.2
			c0.3-0.3,0.7-0.5,1.2-0.5h20.9c0.5,0,0.9,0.2,1.2,0.5c0.3,0.3,0.5,0.7,0.5,1.2v1.9c0,0.5-0.2,0.9-0.5,1.2
			c-0.3,0.3-0.7,0.5-1.2,0.5h-0.5c-0.2,0-0.2,0.1-0.2,0.2v2.2c0,0.1,0.1,0.2,0.2,0.2h1.7c0.3,0,0.6,0.1,0.9,0.4
			c0.2,0.2,0.4,0.5,0.4,0.9s-0.1,0.6-0.4,0.8c-0.2,0.2-0.5,0.3-0.9,0.3h-1.7c-0.2,0-0.2,0.1-0.2,0.2v7.7c0,0.7-0.1,1.2-0.2,1.5
			c-0.2,0.4-0.5,0.6-0.9,0.8c-0.5,0.3-1.4,0.4-2.7,0.4h0c-0.3,0-0.6-0.1-0.9-0.3c-0.3-0.2-0.5-0.5-0.6-0.9c-0.1-0.3-0.1-0.5,0.1-0.8
			c0.2-0.2,0.4-0.4,0.6-0.3c0.3,0,0.6,0,0.9,0c0.4,0,0.6,0,0.8,0c0.2,0,0.3,0,0.4-0.1c0.1-0.1,0.1-0.2,0.1-0.4v-7.6
			c0-0.2-0.1-0.2-0.2-0.2h-5.6c-0.3,0-0.6-0.1-0.9-0.3c-0.2-0.2-0.4-0.5-0.4-0.8s0.1-0.6,0.4-0.9c0.2-0.2,0.5-0.4,0.9-0.4h5.6
			c0.1,0,0.2-0.1,0.2-0.2v-1.3c0-0.5,0.2-0.9,0.5-1.2c0.3-0.3,0.7-0.5,1.2-0.5h0.3c0.1,0,0.2-0.1,0.2-0.2V11c0-0.2-0.1-0.2-0.2-0.2
			H84.7z M84.4,16.2c-0.3,0-0.6-0.1-0.9-0.4c-0.2-0.2-0.4-0.5-0.4-0.9s0.1-0.6,0.4-0.9c0.2-0.2,0.5-0.4,0.9-0.4h7.6
			c0.4,0,0.7,0.1,0.9,0.4c0.2,0.2,0.4,0.5,0.4,0.9s-0.1,0.6-0.4,0.9c-0.2,0.2-0.5,0.4-0.9,0.4H84.4z M95.6,21.5
			c-0.2-0.2-0.2-0.5-0.1-0.8c0.1-0.3,0.3-0.5,0.5-0.6c0.2-0.1,0.4-0.1,0.5-0.1c0.1,0,0.3,0,0.4,0.1c0.3,0.1,0.6,0.3,0.8,0.5
			c0.5,0.8,1,1.6,1.4,2.5c0.1,0.2,0.1,0.3,0.1,0.5s0,0.3-0.1,0.5c-0.1,0.3-0.4,0.5-0.7,0.7c-0.1,0.1-0.3,0.1-0.4,0.1
			c-0.1,0-0.3,0-0.4-0.1c-0.3-0.1-0.5-0.3-0.6-0.6C96.6,23.3,96.1,22.4,95.6,21.5z"/>
		<path class="st2" d="M110.4,32.1c-0.2-0.2-0.3-0.5-0.3-0.8c0-0.3,0.1-0.6,0.3-0.8s0.5-0.3,0.8-0.3h23.1c0.3,0,0.6,0.1,0.8,0.3
			c0.2,0.2,0.3,0.5,0.3,0.8c0,0.3-0.1,0.6-0.3,0.8c-0.2,0.2-0.5,0.3-0.8,0.3h-23.1C110.9,32.4,110.6,32.3,110.4,32.1z M118.6,12.4
			c-0.3,0.3-0.6,0.4-0.9,0.4c-0.4,0-0.7-0.1-0.9-0.4c-0.3-0.3-0.4-0.6-0.4-0.9v-0.4c0-0.2-0.1-0.2-0.2-0.2h-4.8
			c-0.3,0-0.6-0.1-0.8-0.3c-0.2-0.2-0.3-0.5-0.3-0.8s0.1-0.6,0.3-0.8c0.2-0.2,0.5-0.3,0.8-0.3h4.9c0.1,0,0.2-0.1,0.2-0.2V8.2
			c0-0.4,0.1-0.7,0.4-0.9c0.3-0.3,0.6-0.4,0.9-0.4c0.4,0,0.7,0.1,0.9,0.4c0.3,0.3,0.4,0.6,0.4,0.9v0.2c0,0.1,0.1,0.2,0.2,0.2h7
			c0.1,0,0.2-0.1,0.2-0.2V8.2c0-0.4,0.1-0.7,0.4-0.9c0.3-0.3,0.6-0.4,0.9-0.4s0.7,0.1,0.9,0.4c0.3,0.3,0.4,0.6,0.4,0.9v0.2
			c0,0.1,0.1,0.2,0.2,0.2h5c0.3,0,0.6,0.1,0.8,0.3c0.2,0.2,0.3,0.5,0.3,0.8s-0.1,0.6-0.3,0.8c-0.2,0.2-0.5,0.3-0.8,0.3h-5
			c-0.2,0-0.2,0.1-0.2,0.2v0.4c0,0.4-0.1,0.7-0.4,0.9c-0.3,0.3-0.6,0.4-0.9,0.4s-0.7-0.1-0.9-0.4c-0.3-0.3-0.4-0.6-0.4-0.9v-0.4
			c0-0.2-0.1-0.2-0.2-0.2h-7c-0.1,0-0.2,0.1-0.2,0.2v0.4C118.9,11.8,118.8,12.1,118.6,12.4z M134.7,17.8c0,0.4-0.1,0.7-0.4,0.9
			c-0.2,0.2-0.5,0.4-0.9,0.4c-0.4,0-0.7-0.1-0.9-0.4c-0.2-0.2-0.4-0.5-0.4-0.9v-1.6c0-0.2-0.1-0.2-0.2-0.2h-18.5
			c-0.1,0-0.2,0.1-0.2,0.2v1.6c0,0.3-0.1,0.6-0.4,0.9c-0.2,0.2-0.5,0.4-0.9,0.4c-0.3,0-0.6-0.1-0.9-0.4c-0.2-0.2-0.4-0.5-0.4-0.9
			v-2.3c0-0.5,0.2-0.9,0.5-1.2c0.3-0.3,0.7-0.5,1.2-0.5h8.7c0.1,0,0.2-0.1,0.2-0.2v-0.5c0-0.4,0.1-0.7,0.4-0.9
			c0.3-0.3,0.6-0.4,0.9-0.4c0.4,0,0.7,0.1,0.9,0.4c0.3,0.3,0.4,0.6,0.4,0.9v0.5c0,0.2,0.1,0.2,0.2,0.2h8.9c0.4,0,0.8,0.2,1.2,0.5
			c0.3,0.3,0.5,0.7,0.5,1.2V17.8z M114.9,18.8c-0.2-0.2-0.3-0.4-0.3-0.6s0.1-0.4,0.3-0.6c0.2-0.2,0.4-0.2,0.6-0.2h14.3
			c0.2,0,0.4,0.1,0.6,0.2c0.2,0.2,0.3,0.4,0.3,0.6s-0.1,0.4-0.3,0.6s-0.4,0.3-0.6,0.3h-14.3C115.3,19,115.1,18.9,114.9,18.8z
			 M116.3,28.7c-0.4,0-0.8-0.2-1.2-0.5c-0.3-0.3-0.5-0.7-0.5-1.2v-5c0-0.4,0.2-0.8,0.5-1.2c0.3-0.3,0.7-0.5,1.2-0.5h12.8
			c0.4,0,0.8,0.2,1.2,0.5c0.3,0.3,0.5,0.7,0.5,1.2v5c0,0.4-0.2,0.8-0.5,1.2c-0.3,0.3-0.7,0.5-1.2,0.5H116.3z M117.4,22.1
			c-0.2,0-0.2,0.1-0.2,0.2v1.3c0,0.2,0.1,0.2,0.2,0.2h10.5c0.1,0,0.2-0.1,0.2-0.2v-1.3c0-0.2-0.1-0.2-0.2-0.2H117.4z M117.4,25.3
			c-0.2,0-0.2,0.1-0.2,0.2v1.3c0,0.2,0.1,0.2,0.2,0.2h10.5c0.1,0,0.2-0.1,0.2-0.2v-1.3c0-0.2-0.1-0.2-0.2-0.2H117.4z"/>
		<path class="st2" d="M146.4,24c-0.1,0-0.2,0.1-0.2,0.2v0.2c0,0.2,0.1,0.3,0.2,0.3c0.7,0.5,1.7,1.2,3,2.3c0.2,0.2,0.4,0.5,0.4,0.8
			c0,0.1,0,0.1,0,0.2c0,0.3-0.1,0.5-0.3,0.7c-0.2,0.2-0.4,0.4-0.7,0.4s-0.6-0.1-0.8-0.3c-0.5-0.5-1.1-1-1.8-1.7c0,0-0.1,0-0.1,0
			c0,0,0,0,0,0.1v5c0,0.3-0.1,0.6-0.4,0.9c-0.2,0.2-0.5,0.4-0.9,0.4s-0.6-0.1-0.9-0.4c-0.2-0.2-0.4-0.5-0.4-0.9V27
			c0,0,0-0.1-0.1-0.1c0,0-0.1,0-0.1,0c-0.4,0.7-0.9,1.4-1.4,2.1s-1,1.2-1.5,1.8c-0.2,0.2-0.5,0.3-0.8,0.3c-0.3,0-0.6-0.2-0.8-0.4
			c-0.2-0.2-0.3-0.4-0.3-0.7c0-0.3,0.1-0.6,0.3-0.8c1.5-1.4,2.7-3,3.8-5c0-0.1,0-0.1,0-0.1c0,0-0.1-0.1-0.1-0.1H140
			c-0.3,0-0.6-0.1-0.8-0.3c-0.2-0.2-0.3-0.5-0.3-0.8c0-0.3,0.1-0.6,0.3-0.8c0.2-0.2,0.5-0.3,0.8-0.3h3.5c0.1,0,0.2-0.1,0.2-0.2v-1.1
			c0-0.3,0.1-0.6,0.4-0.9c0.2-0.2,0.5-0.4,0.9-0.4s0.6,0.1,0.9,0.4c0.2,0.2,0.4,0.5,0.4,0.9v1.1c0,0.1,0.1,0.2,0.2,0.2h3
			c0.3,0,0.6,0.1,0.8,0.3c0.2,0.2,0.3,0.5,0.3,0.8c0,0.3-0.1,0.6-0.3,0.8c-0.2,0.2-0.5,0.3-0.8,0.3H146.4z M141.9,13.1
			c-0.1,0-0.2,0.1-0.2,0.2v2c0,0.3-0.1,0.6-0.4,0.9c-0.2,0.2-0.5,0.4-0.8,0.4c-0.3,0-0.6-0.1-0.8-0.4c-0.2-0.2-0.4-0.5-0.4-0.9v-2.4
			c0-0.5,0.2-0.8,0.5-1.2c0.3-0.3,0.7-0.5,1.2-0.5h9c0.1,0,0.2-0.1,0.2-0.2v-0.9c0-0.1-0.1-0.2-0.2-0.2h-7.9c-0.3,0-0.5-0.1-0.7-0.3
			c-0.2-0.2-0.3-0.4-0.3-0.7c0-0.3,0.1-0.5,0.3-0.7c0.2-0.2,0.4-0.3,0.7-0.3H161c0.3,0,0.5,0.1,0.7,0.3c0.2,0.2,0.3,0.4,0.3,0.7
			c0,0.3-0.1,0.5-0.3,0.7c-0.2,0.2-0.4,0.3-0.7,0.3h-8c-0.1,0-0.2,0.1-0.2,0.2v0.9c0,0.1,0.1,0.2,0.2,0.2h9.2c0.5,0,0.9,0.2,1.2,0.5
			c0.3,0.3,0.5,0.7,0.5,1.2v2.3c0,0.3-0.1,0.6-0.4,0.9c-0.2,0.2-0.5,0.4-0.9,0.4s-0.6-0.1-0.9-0.4c-0.2-0.2-0.4-0.5-0.4-0.9v-2
			c0-0.1-0.1-0.2-0.2-0.2H153c-0.1,0-0.2,0.1-0.2,0.2V18c0,0.4-0.1,0.7-0.4,0.9c-0.3,0.3-0.6,0.4-0.9,0.4c-0.4,0-0.7-0.1-0.9-0.4
			c-0.3-0.3-0.4-0.6-0.4-0.9v-4.8c0-0.1-0.1-0.2-0.2-0.2H141.9z M143.1,18.6c-0.2,0-0.4-0.1-0.6-0.2c-0.2-0.2-0.2-0.3-0.2-0.6
			c0-0.2,0.1-0.4,0.2-0.5c0.1-0.1,0.3-0.2,0.6-0.2h5.1c0.2,0,0.4,0.1,0.6,0.2c0.2,0.2,0.2,0.3,0.2,0.5c0,0.2-0.1,0.4-0.2,0.6
			c-0.1,0.2-0.3,0.2-0.6,0.2H143.1z M148.2,14.3c0.2,0,0.4,0.1,0.6,0.2c0.2,0.2,0.2,0.3,0.2,0.5c0,0.2-0.1,0.4-0.2,0.5
			c-0.1,0.2-0.3,0.2-0.6,0.2h-4.5c-0.2,0-0.4-0.1-0.5-0.2c-0.2-0.1-0.2-0.3-0.2-0.5c0-0.2,0.1-0.4,0.2-0.5c0.1-0.2,0.3-0.2,0.5-0.2
			H148.2z M163.8,22.1c0.2,0.2,0.3,0.5,0.3,0.8c0,0.3-0.1,0.6-0.3,0.8c-0.2,0.2-0.5,0.3-0.8,0.3h-3.2c0,0-0.1,0-0.1,0.1
			c0,0,0,0.1,0,0.1c1.1,2,2.5,3.6,4.1,4.8c0.3,0.2,0.4,0.5,0.4,0.9c0,0.3-0.1,0.5-0.3,0.7c-0.2,0.3-0.5,0.4-0.9,0.5
			c-0.1,0-0.1,0-0.2,0c-0.3,0-0.5-0.1-0.7-0.3c-1.4-1.2-2.6-2.6-3.6-4.4c0,0,0-0.1-0.1,0c0,0,0,0,0,0V32c0,0.3-0.1,0.6-0.4,0.9
			c-0.3,0.3-0.6,0.4-0.9,0.4c-0.3,0-0.6-0.1-0.9-0.4c-0.2-0.3-0.4-0.5-0.4-0.9v-5.8c0,0,0,0,0,0c0,0-0.1,0-0.1,0
			c-1.1,1.8-2.3,3.4-3.6,4.6c-0.2,0.2-0.5,0.3-0.7,0.3c-0.1,0-0.1,0-0.2,0c-0.3,0-0.6-0.2-0.8-0.4c-0.2-0.2-0.3-0.5-0.3-0.7
			c0-0.3,0.1-0.6,0.4-0.8c1.6-1.3,2.9-2.9,4-4.9c0-0.1,0-0.1,0-0.1c0,0-0.1-0.1-0.1-0.1h-2.3c-0.3,0-0.6-0.1-0.8-0.3
			c-0.2-0.2-0.3-0.5-0.3-0.8c0-0.3,0.1-0.6,0.3-0.8c0.2-0.2,0.5-0.3,0.8-0.3h3.5c0.2,0,0.2-0.1,0.2-0.2v-1.1c0-0.3,0.1-0.6,0.4-0.9
			c0.2-0.3,0.5-0.4,0.9-0.4c0.3,0,0.6,0.1,0.9,0.4c0.3,0.3,0.4,0.5,0.4,0.9v1.1c0,0.1,0.1,0.2,0.2,0.2h4.3
			C163.4,21.8,163.6,21.9,163.8,22.1z M154.2,15.6c-0.2-0.1-0.2-0.3-0.2-0.5c0-0.2,0.1-0.4,0.2-0.5c0.1-0.2,0.3-0.2,0.6-0.2h4.6
			c0.2,0,0.4,0.1,0.5,0.2c0.2,0.2,0.2,0.3,0.2,0.5c0,0.2-0.1,0.4-0.2,0.5c-0.1,0.2-0.3,0.2-0.5,0.2h-4.6
			C154.5,15.8,154.3,15.7,154.2,15.6z M154.8,18.6c-0.2,0-0.4-0.1-0.6-0.2c-0.2-0.2-0.2-0.3-0.2-0.6c0-0.2,0.1-0.4,0.2-0.5
			c0.1-0.1,0.3-0.2,0.6-0.2h5.2c0.2,0,0.4,0.1,0.5,0.2c0.2,0.2,0.2,0.3,0.2,0.5c0,0.2-0.1,0.4-0.2,0.6c-0.2,0.2-0.3,0.2-0.5,0.2
			H154.8z"/>
	</g>
</g>
</svg>
