<?xml version="1.0" encoding="utf-8"?>
<!-- Generator: Adobe Illustrator 24.0.0, SVG Export Plug-In . SVG Version: 6.00 Build 0)  -->
<svg version="1.1" id="Layer_3" xmlns="http://www.w3.org/2000/svg" xmlns:xlink="http://www.w3.org/1999/xlink" x="0px" y="0px"
	 viewBox="0 0 165.9 49.5" style="enable-background:new 0 0 165.9 49.5;" xml:space="preserve">
<style type="text/css">
	.st0{fill:#12DA62;}
	.st1{fill:#FFFFFF;}
	.st2{fill:#221714;}
</style>
<title>logo</title>
<path class="st0" d="M48.6,12.9C46.8,6.4,43.1,2.2,35.4,0.7c-5.7-1-15.5-0.8-20.1-0.2C1.4,2.9,0.1,12.1,0.1,26
	c0,13.5,3,21.3,16.2,23.1c3.4,0.4,13.8,0.7,19.4-0.4c7-1.6,11.2-5,13.1-12.9C49.9,30.4,49.8,18.5,48.6,12.9z"/>
<path class="st1" d="M25.9,43c-1.3,0-2.5-1.2-2.5-2.5v-5.4c0-1.3,1.2-2.5,2.5-2.5c1.3,0,2.5,1.2,2.5,2.5v5.4
	C28.4,41.8,27.2,43,25.9,43z"/>
<path class="st1" d="M25.3,37.7c-3,0-5.5-0.7-7.7-2.2c-3-1.8-4.7-5.2-4.7-8.9c0-3.5,1.5-6.5,4.2-8.5c2.7-2.2,6.5-3,10.2-2.5l4.8-7.4
	c0.8-1.3,2.3-1.7,3.5-1c1.2,0.8,1.5,2.3,0.7,3.5l-5.8,8.9c-0.5,0.8-1.7,1.3-2.7,1c-2.8-0.7-5.7-0.2-7.7,1.3c-1,0.8-2.2,2.3-2.2,4.7
	c0,2,0.8,3.7,2.3,4.7c1.5,1,3.3,1.3,5.5,1.3c3.5-0.2,5-2,5.5-3.3h-3.2c-1.3,0-2.5-1.2-2.5-2.5s1.2-2.5,2.5-2.5l6,0.2
	c1.3,0,2.5,1.2,2.5,2.5v1.3c0,3.7-3.3,9.2-10.7,9.5C25.8,37.7,25.6,37.7,25.3,37.7z"/>
<path class="st1" d="M19.8,14.3c-0.7,0-1.5-0.3-2-1L16,10.9c-0.8-1-0.7-2.7,0.5-3.5c1.2-0.8,2.7-0.7,3.5,0.3l1.8,2.5
	c0.8,1,0.7,2.7-0.5,3.5C21,14.1,20.3,14.3,19.8,14.3z"/>
<path class="st2" d="M143.6,30.7c0,0.1,0,5.5-1.1,9.8l-0.2,0.6h2.3l0,0c1.2-4.6,1.2-10.1,1.2-10.3v-1.1h-2.2V30.7z M165.1,25.4h-5
	v-2.2h-2.2v2.2h-5v2.2h5v14.2h2.2V27.6h5V25.4z M153.4,30.7c0,0.1,0,5.5-1.1,9.8l-0.2,0.6h2.3l0,0c1.2-4.6,1.2-10.1,1.2-10.3v-1.1
	h-2.2V30.7z M134.9,7.7h-2.2l-0.1,1h-11.7l-0.1-1h-2.2l0.1,1h-3.6v2.2h3.8l0.1,1h2.2l-0.1-1h11.3l-0.1,1h2.2l0.1-1h3.8V8.7h-3.6
	L134.9,7.7z M135.7,14.4h-7.8v-1.1h-2.2v1.1h-7.9c-1.5,0-2.7,1.2-2.7,2.7v1h2.2v-1c0-0.3,0.2-0.5,0.5-0.5h17.9
	c0.3,0,0.5,0.2,0.5,0.5v1h2.2v-1C138.4,15.6,137.1,14.4,135.7,14.4z M157.1,21.3h5v-2.2h-5V21.3z M165.7,40.4
	c-1.1-4.3-1.1-9.7-1.1-9.8v-1.1h-2.2v1.1c0,0.2,0,5.8,1.2,10.3l0,0h2.3L165.7,40.4z M144.5,14.3c0-0.3,0.2-0.5,0.5-0.5h7.9v8.4h2.2
	v-8.4h7.9c0.3,0,0.5,0.2,0.5,0.5v8.4h2.2v-8.4c0-1.5-1.2-2.7-2.7-2.7h-7.9V9.9h10.6V7.7h-23.4v2.2h10.6v1.7H145
	c-1.5,0-2.7,1.2-2.7,2.7v8.4h2.2V14.3z M137.5,19.9h-21.7v2.2h21.7V19.9z M162.1,15.5h-5v2.2h5V15.5z M146,21.3h5v-2.2h-5V21.3z
	 M146,17.7h5v-2.2h-5V17.7z M97.1,37.1V22.3h2.3v-2.2H87.8v2.2h1.6v3.1c0,0.1,0,9.1-1.5,15.6l-0.2,0.8H90l0.1-0.3
	c1.5-6.8,1.5-15.7,1.5-16.1v-3.1h3.3v14.7c0,2.6,2.1,4.7,4.7,4.7H111v-2.2H99.6C98.2,39.6,97.1,38.5,97.1,37.1z M137.5,27.4
	c0-1.5-1.2-2.7-2.7-2.7h-16.4c-1.5,0-2.7,1.2-2.7,2.7v6.5c0,1.5,1.2,2.7,2.7,2.7h16.4c1.5,0,2.7-1.2,2.7-2.7V27.4z M135.3,33.9
	c0,0.3-0.2,0.5-0.5,0.5h-16.4c-0.3,0-0.5-0.2-0.5-0.5v-2.2h15.4v-2.2H118v-2.2c0-0.3,0.2-0.5,0.5-0.5h16.4c0.3,0,0.5,0.2,0.5,0.5
	V33.9z M115.1,41.8h23.3v-2.2h-23.3V41.8z M148,25.4h-5v2.2h5v14.2h2.2V23.2H148V25.4z M80.2,7.7H78l-0.1,1H66.2l-0.1-1h-2.2l0.1,1
	h-3.6v2.2h3.8l0.1,1h2.2l-0.1-1h11.3l-0.1,1h2.2l0.1-1h3.8V8.7h-3.6L80.2,7.7z M80.7,37.6c0,1.1-0.9,2-2.1,2H66.8
	c-1.3,0-2.4-1-2.4-2.4c0-1.3,0.6-2.6,1.5-3.4l14.7-13.2c0.7-0.6,1.1-1.5,1.1-2.4c0-1.8-1.5-3.2-3.3-3.2H63.2v2.2h15.3
	c0.6,0,1.1,0.5,1.1,1.1c0,0.3-0.1,0.6-0.3,0.8L64.5,32.2c-1.4,1.3-2.3,3.1-2.3,5.2c0,2.5,2,4.5,4.5,4.5h11.8c2.4,0,4.3-1.9,4.3-4.2
	v-4.3h-2.2V37.6z M109.8,14.4h-2.2v2.9h-5.8v2.2h5.8v9.6c0,0,0,3.2-0.7,6.1l-0.2,0.6h2.3l0-0.1c0.8-3.2,0.8-6.5,0.8-6.7v-9.6h1.2
	v-2.2h-1.2V14.4z M99.3,14.4H87.8v2.2h11.6V14.4z M108.3,7.6H90.5c-1.5,0-2.7,1.2-2.7,2.7v1.5H90v-1.5c0-0.3,0.2-0.5,0.5-0.5h17.8
	c0.3,0,0.5,0.2,0.5,0.5v1.5h2.2v-1.5C111,8.8,109.8,7.6,108.3,7.6z M101.8,23.2v1.1c0,4.8,0.8,8.8,0.8,9l0.1,0.3h2.2l-0.1-0.7
	c0,0-0.8-4-0.8-8.6v-1.1H101.8z"/>
</svg>
