<?xml version="1.0" encoding="utf-8"?>
<!-- Generator: Adobe Illustrator 24.0.0, SVG Export Plug-In . SVG Version: 6.00 Build 0)  -->
<svg version="1.1" id="Layer_3" xmlns="http://www.w3.org/2000/svg" xmlns:xlink="http://www.w3.org/1999/xlink" x="0px" y="0px"
	 viewBox="0 0 199.3 199.2" style="enable-background:new 0 0 199.3 199.2;" xml:space="preserve">
<style type="text/css">
	.st0{fill:#12DA62;}
</style>
<title>services-icon-3</title>
<path class="st0" d="M195.6,147.8c-2.2-1.9-4.9-2-8.4-1.1c1-3.7-0.6-7.5-3.8-9.6c-2-1.5-4.5-1.6-7.7-0.9v-14.9
	c0-13.2-9.5-24.4-22.5-26.7l-20-3.5c-5.1-0.9-9.2-4.7-10.4-9.7l-1.5-6.1c10-8,16.6-21.7,16.6-37.2c0-22.9-15-38.2-37.3-38.2
	S63.3,15.4,63.3,38.2c0,15.5,6.6,29.1,16.5,37.2l-1.5,6.1c-1.3,5-5.4,8.8-10.4,9.7l-20,3.5c-13,2.2-22.5,13.5-22.5,26.7v8.3H3
	c-1.7,0-3,1.4-3,3V187c0,1.7,1.4,3,3,3h24.9c20.4,6.1,41.6,9.2,62.9,9.2c31.1,0,68.7-6.9,101.1-32.6c0.7-0.5,7.1-5.1,7.4-11
	C199.4,153.5,198.8,150.5,195.6,147.8z M25.4,183.9H6v-48.3h19.4V183.9z M179.7,141.8c1.6,1.2,1.7,2.2,1.7,2.6
	c0.1,1.5-1.2,3.6-3.4,5.6c-0.7,0.3-1.3,0.6-2,0.9c-11.6,5.1-23.5,9.3-35.8,12.4c0.3-0.9,0.5-1.9,0.6-2.9c0.1-1.6,0-3.1-0.2-4.7
	c8.4-2.5,16.6-5.5,24.6-9.1C170.7,144.2,178.3,140.9,179.7,141.8L179.7,141.8z M134.9,97.6l17.3,3c10.1,1.7,17.5,10.5,17.4,20.7
	v16.9c-2.1,0.8-4.4,1.8-6.9,2.9c-7.8,3.5-15.9,6.5-24.2,8.9c-0.5-0.8-1.1-1.6-1.8-2.3c-2.8-2.6-6.4-4-10.2-3.9
	c-7.7,0.3-15.4,0-23-0.7V108l12.6,11c0.6,0.5,1.3,0.7,2,0.8c0.1,0,0.3,0,0.4,0c0.9-0.1,1.6-0.6,2.1-1.3L134.9,97.6z M100.6,97.7
	L83.1,86c0.4-1,0.8-2,1.1-3l1-4.1c9.5,5.4,21.2,5.4,30.7,0l1,4c0.3,1,0.6,2,1.1,3L100.6,97.7z M121.3,91c2,2.2,4.5,3.9,7.3,5
	l-11,16.1l-12.1-10.6L121.3,91z M69.3,38.2c0-4.5,0.7-8.9,2.2-13.2c4.5,2.4,13.4,6.1,26.4,6.1c7.9-0.1,15.7-1.3,23.2-3.7
	c1.6-0.5,2.5-2.2,2-3.8c-0.5-1.6-2.2-2.5-3.8-2c-24.2,7.4-39.7,0.9-45.2-2.1C79.4,11,88.6,6,100.6,6c19,0,31.2,12.6,31.2,32.2
	c0,21.3-14,38.7-31.2,38.7S69.3,59.5,69.3,38.2z M79.8,91l15.8,10.6l-12.1,10.6l-11-16.1C75.3,95,77.8,93.3,79.8,91z M31.4,121.3
	c0-10.2,7.4-19,17.4-20.7l17.3-3l14.2,20.9c0.5,0.7,1.3,1.2,2.1,1.3c0.1,0,0.3,0,0.4,0c0.7,0,1.4-0.3,2-0.8l12.6-11.1v34
	c-3.1-0.7-6.1-2-8.9-3.8c-6.7-3.9-14.4-8.4-57.2-8.6L31.4,121.3L31.4,121.3z M188.4,161.7c-61.8,49-143.1,27.3-156.9,23.1v-49.1
	c41.2,0.2,48.1,4.2,54.2,7.8c6.2,3.6,11.6,6.8,41.2,6.3c2.1,0,4.2,0.7,5.7,2.1c1.7,1.7,2.4,4.4,2.2,8.1c-0.1,0.9-0.2,3.6-5.5,5.7
	c0,0-0.2,0.1-0.2,0.1c-5.7,2.2-18.1,4.1-45.3,0.6c-1.7-0.2-3.2,0.9-3.4,2.6c-0.2,1.7,0.9,3.2,2.6,3.4c0,0,0,0,0,0
	c8.9,1.2,18,1.9,27,2c9,0,16-0.9,21-2.8h0c16.3-3.3,32.2-8.3,47.4-15.1c6.2-2.6,12-5.1,13.3-4c1.5,1.3,1.6,2.2,1.6,2.8
	C193.2,157.8,189.7,160.7,188.4,161.7L188.4,161.7z"/>
<circle class="st0" cx="15.7" cy="145.6" r="3"/>
</svg>
