<?xml version="1.0" encoding="utf-8"?>
<!-- Generator: Adobe Illustrator 24.0.0, SVG Export Plug-In . SVG Version: 6.00 Build 0)  -->
<svg version="1.1" id="Layer_1" xmlns="http://www.w3.org/2000/svg" xmlns:xlink="http://www.w3.org/1999/xlink" x="0px" y="0px"
	 viewBox="0 0 200 200" style="enable-background:new 0 0 200 200;" xml:space="preserve">
<style type="text/css">
	.st0{fill:#12DA62;}
</style>
<title>services-icon-1</title>
<path class="st0" d="M33.9,172.9H6.1v-42.7c0-1.7-1.4-3-3-3s-3,1.4-3,3V197c0,1.7,1.4,3,3,3s3-1.4,3-3v-18h18.5v18c0,1.7,1.4,3,3,3
	s3-1.4,3-3v-18h3.2c1.7,0,3-1.4,3-3C36.9,174.3,35.6,172.9,33.9,172.9z"/>
<path class="st0" d="M197,127.2c-1.7,0-3,1.4-3,3v42.7h-27.8c-1.7,0-3.1,1.3-3.1,3c0,1.7,1.3,3.1,3,3.1c0,0,0.1,0,0.1,0h3.2v18
	c0,1.7,1.4,3,3,3s3-1.4,3-3v-18h18.5v18c0,1.7,1.4,3,3,3s3-1.4,3-3v-66.7C200,128.6,198.6,127.2,197,127.2z"/>
<path class="st0" d="M151.5,134.3c0-1.7-1.4-3-3-3h-97c-1.7,0-3,1.4-3,3c0,1.7,1.4,3,3,3l0,0H97V197c0,1.7,1.4,3,3,3
	c1.7,0,3-1.4,3-3v-59.7h45.5C150.2,137.3,151.5,136,151.5,134.3z"/>
<path class="st0" d="M22.4,87.1c1.2,0.3,2.5,0.5,3.8,0.5c8.5,0,15.4-6.9,15.3-15.4c0-8.5-6.9-15.4-15.4-15.3
	c-8.5,0-15.4,6.9-15.3,15.4C10.7,79.3,15.5,85.5,22.4,87.1z M19.9,65.1c1.7-1.6,4-2.4,6.3-2.4c0.8,0,1.6,0.1,2.4,0.3
	c5,1.3,8.1,6.4,6.8,11.5c-1.3,5-6.4,8.1-11.5,6.8s-8.1-6.4-6.8-11.5C17.5,68,18.5,66.4,19.9,65.1L19.9,65.1z"/>
<path class="st0" d="M69.2,153.2c-1.6-4.9-6.2-8.3-11.4-8.4l-13.5-0.2c-2.5,0-4.5-2-4.5-4.5l-0.4-26.3l21.9,7c2.1,0.7,4.4,0.7,6.6,0
	l20.7-6.5c5-1.6,7.9-6.9,6.3-12c-0.1-0.2-0.1-0.3-0.2-0.5l0,0c-1.8-4.7-6.9-7.2-11.7-5.8l-18.9,5.9c-0.8,0.2-1.6,0.2-2.4-0.1
	l-21.7-9.3c-2.2-1-4.7-1.3-7.1-1.1l-12.3,1.1c-6,0.6-10.5,5.7-10.4,11.8l1.8,46.9c0.3,9.3,8,16.5,17.3,16.3l18.2-0.4
	c1.6-0.1,3,1,3.4,2.5l6.4,22.5c1.3,4.6,5.5,7.8,10.3,7.8h2c6,0,10.9-4.9,10.9-10.9c0-1.2-0.2-2.3-0.5-3.4L69.2,153.2z M73.4,191.9
	c-0.9,1.3-2.4,2-3.9,2h-2c-2.1,0-3.9-1.4-4.5-3.4L56.6,168c-1.2-4.1-4.9-6.9-9.2-6.9h-0.2L29,161.5c-5.9,0.2-10.9-4.4-11.1-10.3
	c0-0.1,0-0.1,0-0.2l-1.8-46.9c-0.1-2.8,2-5.2,4.9-5.5l12.3-1.1c1.4-0.1,2.9,0.1,4.2,0.7l21.7,9.2c2.1,0.9,4.4,1,6.6,0.3l18.9-5.9
	c1.8-0.5,3.6,0.4,4.3,2.1c0.7,1.8-0.2,3.8-2.1,4.5c-0.1,0-0.1,0-0.2,0.1L65.9,115c-0.9,0.3-2,0.3-2.9,0l-25.9-8.3
	c-1.6-0.5-3.3,0.4-3.8,2c-0.1,0.3-0.1,0.6-0.1,1l0.5,30.5c0.1,5.8,4.7,10.4,10.5,10.5l13.5,0.2c2.6,0,4.9,1.7,5.8,4.2l10.7,32.5
	C74.6,189,74.4,190.7,73.4,191.9z"/>
<path class="st0" d="M173.9,87.6c1.3,0,2.5-0.2,3.8-0.5c8.3-2.1,13.3-10.5,11.2-18.8c-2.1-8.3-10.5-13.3-18.8-11.2
	c-6.1,1.5-10.6,6.6-11.5,12.8c-1.2,8.5,4.6,16.3,13.1,17.5C172.4,87.5,173.1,87.6,173.9,87.6z M164.5,70.8c0.6-3.7,3.3-6.8,7-7.7
	c0.8-0.2,1.6-0.3,2.4-0.3c5.2,0,9.4,4.2,9.4,9.4c0,0.5,0,0.9-0.1,1.4c-0.8,5.1-5.6,8.7-10.7,7.9C167.3,80.7,163.8,75.9,164.5,70.8
	L164.5,70.8z"/>
<path class="st0" d="M188.1,151.3l1.8-47c0.2-6-4.4-11.2-10.4-11.7l-12.2-1.1c-2.4-0.2-4.9,0.2-7.1,1.1l-18.2,7.7
	c-1.1,0.5-2.3,0.4-3.3-0.3l-13.2-9c-4.4-2.9-10.3-1.8-13.3,2.6c-2.9,4.3-1.8,10.2,2.5,13.2l19.9,13.8c2.7,1.9,6.2,2.2,9.2,0.9
	l16.9-7.2l-0.4,25.9c0,2.5-2,4.5-4.5,4.5l-13.5,0.2c-5.2,0.1-9.8,3.4-11.4,8.4l-10.7,32.5c-1.9,5.7,1.2,11.9,7,13.8
	c1.1,0.4,2.3,0.5,3.4,0.5h2c4.8,0,9-3.2,10.3-7.8l6.4-22.5c0.4-1.5,1.8-2.6,3.4-2.5l18.2,0.4C180.1,167.7,187.7,160.5,188.1,151.3z
	 M143.4,168l-6.4,22.5c-0.6,2-2.4,3.4-4.5,3.4h-2c-2.7,0-4.9-2.2-4.9-4.9c0-0.5,0.1-1,0.2-1.5l10.7-32.5c0.8-2.5,3.1-4.2,5.8-4.2
	l13.5-0.2c5.8-0.1,10.4-4.7,10.5-10.5l0.5-30.5c0-1.7-1.3-3.1-3-3.1c-0.4,0-0.9,0.1-1.2,0.2l-21.1,9c-1.1,0.5-2.4,0.3-3.4-0.3
	l-19.9-13.8c-1.6-1.1-2-3.3-0.9-4.9c0-0.1,0.1-0.1,0.1-0.2c1.1-1.5,3.2-1.8,4.7-0.8l13.2,9c2.7,1.8,6.1,2.1,9.1,0.9l18.2-7.7
	c1.3-0.6,2.8-0.8,4.2-0.7l12.2,1.1c2.8,0.3,4.9,2.7,4.9,5.5l-1.8,47c-0.1,5.9-5,10.6-10.9,10.5c0,0-0.1,0-0.1,0l-18.2-0.4
	C148.4,161,144.6,163.8,143.4,168z"/>
<path class="st0" d="M57.7,73.3c1.1,0.5,2.3,0.3,3.2-0.4l22.6-18.7H141c1.7,0,3-1.4,3-3V3c0-1.7-1.4-3-3-3H59c-1.7,0-3,1.4-3,3v67.6
	C56,71.8,56.7,72.8,57.7,73.3z M62,6.1h75.9v42.1H82.4c-0.7,0-1.4,0.2-1.9,0.7L62,64.2V6.1z"/>
</svg>
