<?xml version="1.0" encoding="utf-8"?>
<!-- Generator: Adobe Illustrator 24.0.0, SVG Export Plug-In . SVG Version: 6.00 Build 0)  -->
<svg version="1.1" id="Layer_2" xmlns="http://www.w3.org/2000/svg" xmlns:xlink="http://www.w3.org/1999/xlink" x="0px" y="0px"
	 viewBox="0 0 1200 656" style="enable-background:new 0 0 1200 656;" xml:space="preserve">
<style type="text/css">
	.st0{fill:#12DA62;}
	.st1{fill:#43B149;}
	.st2{opacity:0.2;enable-background:new    ;}
	.st3{fill:#FFFFFF;}
	.st4{fill:#E1E1E1;}
	.st5{fill:url(#SVGID_1_);}
	.st6{fill:#007CF8;}
	.st7{fill:#003948;}
	.st8{opacity:0.2;}
	.st9{fill:#008BEF;}
	.st10{fill:#182632;}
	.st11{fill:#DC3645;}
	.st12{opacity:0.8;fill:url(#SVGID_2_);enable-background:new    ;}
	.st13{fill:#BBBBBB;}
	.st14{fill:#384444;}
	.st15{opacity:0.57;fill:#436867;enable-background:new    ;}
	.st16{fill:#F1BC03;}
	.st17{opacity:0.5;fill:#FFFFFF;enable-background:new    ;}
	.st18{fill:#F68E37;}
	.st19{fill:#FAF8A8;}
	.st20{fill:#FFD04D;}
	.st21{fill:#FFD469;}
	.st22{fill:#FCC53A;}
	.st23{fill:#3C3C71;}
	.st24{fill:#EABA42;}
	.st25{opacity:0.1;enable-background:new    ;}
	.st26{fill:#00EEED;}
	.st27{opacity:0.11;enable-background:new    ;}
</style>
<title>video-frame</title>
<rect y="0" class="st0" width="1200" height="656"/>
<rect y="441.3" class="st1" width="1200" height="214.7"/>
<ellipse class="st2" cx="176.6" cy="592.7" rx="67.3" ry="10.1"/>
<path class="st3" d="M233.1,507.2c-15-4.9-31.1,3.3-35.9,18.3c-4.9,15,3.3,31.1,18.3,35.9c2.9,0.9,5.9,1.4,9,1.4c0.3,0,0.6,0,0.9,0
	c15.7-0.6,28-13.8,27.5-29.5C252.3,521.3,244.5,510.9,233.1,507.2z M232.8,548.4c-7.8,4.7-18,2.2-22.7-5.6c-4.7-7.8-2.2-18,5.6-22.7
	c7.8-4.7,18-2.2,22.7,5.6c1.5,2.6,2.4,5.5,2.4,8.5C240.8,540,237.8,545.4,232.8,548.4z"/>
<path class="st4" d="M224.3,550.8c3,0,5.9-0.8,8.5-2.4c-1.4,5.9-3.8,11-7.5,14.3c-0.3,0-0.6,0-0.9,0c-15.8,0.1-28.6-12.6-28.7-28.4
	c-0.1-15.8,12.6-28.6,28.4-28.7c3,0,6.1,0.5,9,1.4c0.4,3.1,1.1,8.2,1.4,14.1c-7.2-5.7-17.6-4.4-23.2,2.7s-4.4,17.6,2.7,23.2
	C216.9,549.6,220.6,550.9,224.3,550.8z"/>
<path class="st3" d="M227.8,494.5l0.2,40.3c0.1,28.5-23,51.7-51.5,51.7c-28.4,0.1-51.5-22.8-51.7-51.2l-0.2-40.3L227.8,494.5z"/>
<path class="st4" d="M212,592.9l-70.6,0.4c-4,0-7.2-3.2-7.2-7.1l0,0c0-4,3.2-7.2,7.1-7.2l70.6-0.4c4,0,7.2,3.2,7.2,7.1l0,0
	C219.1,589.6,216,592.8,212,592.9z"/>
<path class="st4" d="M217.1,566.7c-3.6,4.6-8,8.6-12.9,11.8l-55.1,0.3c-15-9.4-24.2-25.8-24.3-43.5l-0.2-40.3l30.7-0.2l0.1,10.8
	C155.5,539.6,183.2,566.9,217.1,566.7L217.1,566.7L217.1,566.7z"/>
<linearGradient id="SVGID_1_" gradientUnits="userSpaceOnUse" x1="176.649" y1="109.1658" x2="176.649" y2="288.8098" gradientTransform="matrix(1 0 0 -1 0 655.8898)">
	<stop  offset="0" style="stop-color:#FFFFFF"/>
	<stop  offset="0.216" style="stop-color:#FFFFFF;stop-opacity:0.763"/>
	<stop  offset="0.604" style="stop-color:#FFFFFF;stop-opacity:0.356"/>
	<stop  offset="0.874" style="stop-color:#FFFFFF;stop-opacity:0.1"/>
	<stop  offset="1" style="stop-color:#FFFFFF;stop-opacity:0"/>
</linearGradient>
<path class="st5" d="M157.5,481c0,0-11.9-8.6-8.4-25.4s17.3-19.3,13.3-45.4s-5.9-49.9,5.4-63.7h37c0,0-13,35.2-4.1,58.9
	s1.1,33.5-6.8,46.8s4,28.8,4,28.8L157.5,481L157.5,481z"/>
<rect x="1006" y="329.5" class="st2" width="104.4" height="83.3"/>
<rect x="1006" y="321.7" class="st3" width="104.4" height="83.3"/>
<path class="st6" d="M1006,300.5v21.4h104.4v-21.4H1006z M1020.3,316c-2.8,0-5.1-2.3-5.1-5.1v0c0-2.8,2.3-5.1,5.1-5.1
	c2.8,0,5.1,2.3,5.1,5.1v0C1025.4,313.7,1023.1,316,1020.3,316L1020.3,316z M1096.1,316c-2.8,0-5.1-2.3-5.1-5.1v0
	c0-2.8,2.3-5.1,5.1-5.1s5.1,2.3,5.1,5.1v0C1101.3,313.7,1099,316,1096.1,316C1096.1,316,1096.1,316,1096.1,316L1096.1,316z"/>
<path class="st6" d="M1110.4,310.8v11.1H1006v-11.1h9.1c0,2.8,2.3,5.1,5.1,5.1c2.8,0,5.1-2.3,5.1-5.1h65.6c0,2.8,2.3,5.1,5.1,5.1
	s5.1-2.3,5.1-5.1H1110.4L1110.4,310.8z"/>
<path class="st3" d="M1018,289h4.6c0.6,0,1,0.4,1,1v20.7c0,0.1-0.1,0.2-0.2,0.2l0,0h-6.3c-0.1,0-0.2-0.1-0.2-0.2l0,0V290
	C1017,289.4,1017.4,289,1018,289z"/>
<path class="st3" d="M1093.9,289h4.6c0.6,0,1,0.4,1,1v20.7c0,0.1-0.1,0.2-0.2,0.2l0,0h-6.3c-0.1,0-0.2-0.1-0.2-0.2l0,0V290
	C1092.8,289.4,1093.3,289,1093.9,289C1093.9,289,1093.9,289,1093.9,289z"/>
<path class="st7" d="M1035.5,342.5c6.1,0,7.4-2.9,8.6-6.3h5.3v50h-7.9v-38.1h-6.1L1035.5,342.5L1035.5,342.5z"/>
<path class="st7" d="M1070.4,342.8c-2.5,0-4.1,1.4-4.1,4.9v5.4h-7.4v-4.8c0-8,4-12.6,11.7-12.6s11.7,4.6,11.7,12.6
	c0,15.7-15.6,21.6-15.6,29.8c0,0.4,0,0.7,0.1,1.1h14.8v7.1h-22.7v-6.1c0-14.7,15.6-17.1,15.6-31.6
	C1074.5,344,1072.9,342.8,1070.4,342.8z"/>
<g class="st8">
	<circle cx="141.4" cy="128.3" r="71.1"/>
</g>
<circle class="st9" cx="141.4" cy="121" r="71.1"/>
<path class="st3" d="M141.4,186.5c-36.1,0-65.5-29.3-65.5-65.5s29.3-65.5,65.5-65.5s65.5,29.3,65.5,65.5l0,0
	C206.8,157.2,177.5,186.5,141.4,186.5z"/>
<rect x="139.1" y="61.5" class="st10" width="2.4" height="13.7"/>
<rect x="139.1" y="166.5" class="st10" width="2.4" height="13.7"/>
<rect x="81" y="119.6" class="st10" width="13.7" height="2.4"/>
<rect x="186" y="119.6" class="st10" width="13.7" height="2.4"/>
<rect x="170.7" y="82.5" transform="matrix(0.7071 -0.7071 0.7071 0.7071 -7.2327 150.0221)" class="st10" width="13.7" height="2.4"/>
<rect x="96.4" y="156.8" transform="matrix(0.7071 -0.7071 0.7071 0.7071 -81.4848 119.266)" class="st10" width="13.7" height="2.4"/>
<rect x="102" y="76.9" transform="matrix(0.7071 -0.7071 0.7071 0.7071 -28.9805 97.5185)" class="st10" width="2.4" height="13.7"/>
<rect x="176.3" y="151.2" transform="matrix(0.7071 -0.7071 0.7071 0.7071 -59.7367 171.7565)" class="st10" width="2.4" height="13.7"/>
<g class="st8">
	<path d="M206.9,121c0,1.3,0,2.5-0.1,3.7c-2.1-36.1-33-63.7-69.1-61.6c-33.2,1.9-59.7,28.4-61.6,61.6c-0.1-1.2-0.1-2.5-0.1-3.7
		c0-36.1,29.3-65.4,65.5-65.4C177.6,55.6,206.8,84.9,206.9,121z"/>
</g>
<rect x="150" y="112.3" transform="matrix(0.3664 -0.9305 0.9305 0.3664 -20.376 219.6425)" class="st11" width="2.1" height="24.9"/>
<polygon class="st10" points="141.4,121.9 103.2,121.9 103.2,119.8 139.3,119.8 139.3,90.2 141.4,90.2 "/>
<linearGradient id="SVGID_2_" gradientUnits="userSpaceOnUse" x1="601.111" y1="1650.1377" x2="601.111" y2="-73.6332" gradientTransform="matrix(1 0 0 -1 0 655.8898)">
	<stop  offset="0" style="stop-color:#FFFFFF"/>
	<stop  offset="0.216" style="stop-color:#FFFFFF;stop-opacity:0.763"/>
	<stop  offset="0.604" style="stop-color:#FFFFFF;stop-opacity:0.356"/>
	<stop  offset="0.874" style="stop-color:#FFFFFF;stop-opacity:0.1"/>
	<stop  offset="1" style="stop-color:#FFFFFF;stop-opacity:0"/>
</linearGradient>
<circle class="st12" cx="601.1" cy="335.3" r="305.4"/>
<ellipse class="st2" cx="614.2" cy="512.3" rx="270.7" ry="19.6"/>
<path class="st10" d="M387.6,104.5h437.3c7.7,0,14,6.3,14,14c0,0,0,0,0,0v261.5l0,0H372.5l0,0V119.5
	C372.5,111.2,379.3,104.5,387.6,104.5L387.6,104.5z"/>
<path class="st3" d="M797,421.9H414.3c-23.1,0-41.8-18.7-41.8-41.8h466.3C838.8,403.2,820.1,421.9,797,421.9
	C797,421.9,797,421.9,797,421.9z"/>
<rect x="563.1" y="421.9" class="st4" width="84.6" height="70.4"/>
<rect x="563.1" y="421.9" class="st13" width="84.6" height="22.3"/>
<path class="st3" d="M519.6,492.3h171.6c6.6,0,12,5.4,12,12v14.8l0,0H507.6l0,0v-14.8C507.6,497.7,512.9,492.3,519.6,492.3z"/>
<path class="st14" d="M399.4,124.6c-4,0-7.3,3.3-7.3,7.3v5.2l250.2,216.3h42.8L420.4,124.6H399.4z"/>
<path class="st14" d="M392.1,217.1v129.1c0,4,3.3,7.3,7.3,7.3H606l-213.9-185V217.1z"/>
<path class="st14" d="M811.4,124.6H524.6l264.7,228.9h22c4,0,7.3-3.3,7.3-7.3V131.9C818.7,127.9,815.4,124.6,811.4,124.6z"/>
<polygon class="st15" points="505.4,124.6 420.4,124.6 685.2,353.5 710.2,353.5 789.4,353.5 524.6,124.6 "/>
<polygon class="st15" points="392.1,168.5 606,353.5 642.3,353.5 392.1,137.2 "/>
<circle class="st13" cx="603.7" cy="399.6" r="13.2"/>
<rect x="715.1" y="367.9" transform="matrix(0.9999 -1.446828e-02 1.446828e-02 0.9999 -5.6 10.7207)" class="st2" width="46.1" height="48.9"/>
<rect x="712.5" y="366.9" transform="matrix(0.9999 -1.446828e-02 1.446828e-02 0.9999 -5.5648 10.6839)" class="st16" width="46.1" height="46.1"/>
<rect x="731.4" y="355.7" transform="matrix(0.9999 -1.445082e-02 1.445082e-02 0.9999 -5.1766 10.6627)" class="st17" width="7.7" height="15.7"/>
<polygon class="st2" points="833.6,635 375.9,635 436.3,539.1 773.2,539.1 "/>
<polygon class="st4" points="818.2,605.4 390.2,605.4 431.9,539.1 776.5,539.1 "/>
<rect x="390.2" y="605.4" class="st13" width="428" height="15"/>
<polygon class="st3" points="454.8,550.8 433.1,550.8 436.3,544 457.3,544 "/>
<polygon class="st3" points="457.6,550.8 460.3,544 481.3,544 479.2,550.8 "/>
<polygon class="st3" points="482,550.8 484.3,544 505.2,544 503.6,550.8 "/>
<polygon class="st3" points="506.5,550.8 508.4,544 529.3,544 528.1,550.8 "/>
<polygon class="st3" points="531,550.8 532.4,544 553.3,544 552.6,550.8 "/>
<polygon class="st3" points="555.4,550.8 556.4,544 577.4,544 577.1,550.8 "/>
<polygon class="st3" points="579.8,550.8 580.4,544 601.3,544 601.4,550.8 "/>
<polygon class="st3" points="604.1,550.8 604.2,544 625.1,544 625.7,550.8 "/>
<polygon class="st3" points="628.5,550.8 628.1,544 649.1,544 650.1,550.8 "/>
<polygon class="st3" points="652.9,550.8 652.2,544 673.1,544 674.5,550.8 "/>
<polygon class="st3" points="677.4,550.8 676.2,544 697.1,544 699,550.8 "/>
<polygon class="st3" points="701.9,550.8 700.3,544 721.2,544 723.5,550.8 "/>
<polygon class="st3" points="726.3,550.8 724.3,544 745.2,544 747.9,550.8 "/>
<polygon class="st3" points="750.7,550.8 772.4,550.8 769.2,544 748.2,544 "/>
<polygon class="st3" points="450.3,563.5 427.9,563.5 431.2,556.4 452.9,556.4 "/>
<polygon class="st3" points="453.2,563.5 456,556.4 477.7,556.4 475.6,563.5 "/>
<polygon class="st3" points="478.5,563.5 480.9,556.4 502.6,556.4 500.9,563.5 "/>
<polygon class="st3" points="503.9,563.5 505.9,556.4 527.6,556.4 526.4,563.5 "/>
<polygon class="st3" points="529.3,563.5 530.8,556.4 552.5,556.4 551.7,563.5 "/>
<polygon class="st3" points="554.6,563.5 555.7,556.4 577.4,556.4 577.1,563.5 "/>
<polygon class="st3" points="579.9,563.5 580.5,556.4 602.2,556.4 602.4,563.5 "/>
<polygon class="st3" points="605.1,563.5 605.2,556.4 626.9,556.4 627.5,563.5 "/>
<polygon class="st3" points="630.3,563.5 630,556.4 651.7,556.4 652.8,563.5 "/>
<polygon class="st3" points="655.7,563.5 654.9,556.4 676.6,556.4 678.1,563.5 "/>
<polygon class="st3" points="681.1,563.5 679.8,556.4 701.5,556.4 703.5,563.5 "/>
<polygon class="st3" points="706.5,563.5 704.8,556.4 726.5,556.4 728.9,563.5 "/>
<polygon class="st3" points="731.8,563.5 729.7,556.4 751.4,556.4 754.2,563.5 "/>
<polygon class="st3" points="757.1,563.5 779.5,563.5 776.3,556.4 754.5,556.4 "/>
<polygon class="st3" points="446.3,576 423.2,576 426.6,568.7 448.9,568.7 "/>
<polygon class="st3" points="449.3,576 452.2,568.7 474.5,568.7 472.3,576 "/>
<polygon class="st3" points="475.3,576 477.8,568.7 500.2,568.7 498.4,576 "/>
<polygon class="st3" points="501.5,576 503.5,568.7 525.9,568.7 524.6,576 "/>
<polygon class="st3" points="527.6,576 529.2,568.7 551.5,568.7 550.7,576 "/>
<polygon class="st3" points="553.7,576 554.8,568.7 577.2,568.7 576.8,576 "/>
<polygon class="st3" points="579.8,576 580.4,568.7 602.7,568.7 602.9,576 "/>
<polygon class="st3" points="605.7,576 605.8,568.7 628.2,568.7 628.8,576 "/>
<polygon class="st3" points="631.7,576 631.4,568.7 653.7,568.7 654.8,576 "/>
<polygon class="st3" points="657.8,576 657,568.7 679.4,568.7 680.9,576 "/>
<polygon class="st3" points="683.9,576 682.7,568.7 705,568.7 707,576 "/>
<polygon class="st3" points="710.1,576 708.4,568.7 730.8,568.7 733.2,576 "/>
<polygon class="st3" points="736.2,576 734,568.7 756.4,568.7 759.3,576 "/>
<polygon class="st3" points="762.3,576 785.4,576 782,568.7 759.6,568.7 "/>
<polygon class="st3" points="440.7,588.7 416.8,588.7 420.3,581.2 443.4,581.2 "/>
<polygon class="st3" points="443.8,588.7 446.8,581.2 469.9,581.2 467.7,588.7 "/>
<polygon class="st3" points="470.7,588.7 473.3,581.2 496.4,581.2 494.6,588.7 "/>
<polygon class="st3" points="497.8,588.7 499.9,581.2 523,581.2 521.7,588.7 "/>
<polygon class="st3" points="524.9,588.7 526.4,581.2 549.6,581.2 548.8,588.7 "/>
<polygon class="st3" points="655.4,581.2 632.2,581.2 628.9,581.2 605.8,581.2 602.6,581.2 579.4,581.2 553,581.2 551.9,588.7 
	578.8,588.7 602.7,588.7 605.6,588.7 629.5,588.7 632.6,588.7 656.5,588.7 "/>
<polygon class="st3" points="659.6,588.7 658.8,581.2 681.9,581.2 683.5,588.7 "/>
<polygon class="st3" points="686.6,588.7 685.3,581.2 708.4,581.2 710.5,588.7 "/>
<polygon class="st3" points="713.7,588.7 711.9,581.2 735,581.2 737.6,588.7 "/>
<polygon class="st3" points="740.7,588.7 738.4,581.2 761.6,581.2 764.6,588.7 "/>
<polygon class="st3" points="767.7,588.7 791.6,588.7 788.1,581.2 764.9,581.2 "/>
<ellipse transform="matrix(0.5 -0.866 0.866 0.5 -60.6722 1070.7533)" class="st2" cx="897" cy="587.9" rx="28.2" ry="44.6"/>
<path class="st3" d="M935.2,598L935.2,598c-0.1,0.6-0.4,1.2-0.7,1.8c0,0,0,0,0,0l0,0c-8.1,13.1-51.2,5.6-56-6
	c-0.4-1-0.8-1.9-1.2-2.8c-6-12.9-9.8-9.3-20.3-18c-0.4-0.4-0.8-0.7-1.2-1.2c0-0.1-0.1-0.1-0.1-0.1c-5.9-6.7,1.4-15.3,1.4-15.3
	c0.4-0.3,0.9-0.7,1.3-1v0c3.3-2.4,7-4.2,10.9-5.3c1.7-0.5,3.4-0.8,5.1-1C905,545.6,938,584.7,935.2,598z"/>
<path class="st4" d="M934.5,599.8c-8.1,13.1-51.2,5.6-56-6c-0.4-1-0.8-1.9-1.2-2.8c-6-12.8-10.1-8.9-20.3-18
	c-0.4-0.4-0.8-0.8-1.2-1.2c0-0.1-0.1-0.1-0.1-0.1c-5.9-6.7,1.4-15.3,1.4-15.3c0.4-0.3,0.9-0.7,1.3-1c-0.9,2.5-1.7,8.1,5.1,13.6
	c1.6,1.3,3.4,2.3,5.3,3.1c1.5,0.6,4.5,2.9,9.8,10.4c8.6,11.9,7.4,13.5,26.4,18.7C923.5,606.2,934,600.1,934.5,599.8z"/>
<path class="st4" d="M888,559.6c-11-9.1-18.8-9.5-18.8-9.5c1.7-0.5,3.4-0.8,5.1-1C879.8,551,884.6,554.7,888,559.6z"/>
<path class="st3" d="M327.3,162.5c-18.5,1.9-20,3.4-21.9,21.9c-1.9-18.4-3.4-20-21.9-21.9c18.5-1.9,20-3.4,21.9-21.9
	C307.3,159.1,308.9,160.6,327.3,162.5z"/>
<path class="st3" d="M906.8,412.5c-18.5,1.9-20,3.4-21.9,21.9c-1.9-18.5-3.4-20-21.9-21.9c18.5-1.9,20-3.4,21.9-21.9
	C886.8,409.1,888.3,410.7,906.8,412.5z"/>
<path class="st18" d="M892.7,191.2c-19.8-0.2-32.3-2.7-72.3,6.4c-0.1,0-0.2,0-0.3,0.1c0.1-0.1,0.2-0.1,0.2-0.2
	c34.2-22.7,41.1-33.4,54.5-47.8c13.5-14.5,37-15.8,37-15.8l10.4,20.1l0,0.1l7.3,21.4C929.6,175.4,912.5,191.5,892.7,191.2z"/>
<path class="st16" d="M853.7,183.3c7.6-6.6,14.7-13.7,21.3-21.3c2-2.2,4-4.5,6.2-6.8c7.1-7.6,24.6-13.2,31.3-14.5l6,14.1l6.2,14.5
	c-5.5,4-21.2,13.7-31.7,13.6c-3.2,0-6.2-0.1-9.2-0.2C873.8,182.1,863.7,182.3,853.7,183.3z"/>
<path class="st19" d="M872.8,175.1c3.5-3.3,6.6-6.4,9.7-9.4l0,0c2.4-2.3,4.8-4.8,7.4-7.2c4.8-4.6,16.3-9.4,24.9-12.2l7.5,17.6
	c-8.5,4.9-19.4,10.1-25.7,10.4c-3.5,0.2-7,0.3-10.4,0.4h0C881.9,174.8,877.5,174.9,872.8,175.1z"/>
<path class="st20" d="M949.7,96.9c-3.9-2-8.2-3.2-12.6-3.6c-22.7-2.4-52.3,10.5-52.3,10.5c0,0,0,0,0,0c-0.1-0.6-3.3-25.6,21.8-45.7
	c13.2-10.6,29.1-13.4,41.3-13.7c2-0.1,3.8,1,4.5,2.8c0.5,1.2,0.5,2.6,0.1,3.8c-0.5,1.2-1.4,2.1-2.6,2.6l33.5,3.6l25.1,2.7h0
	C987.3,80.7,949.7,96.9,949.7,96.9z"/>
<path class="st21" d="M884.8,103.8c-0.1-0.6-3.3-25.6,21.8-45.7c13.2-10.6,29.1-13.4,41.3-13.7c2-0.1,3.8,1,4.5,2.8
	c0.5,1.2,0.5,2.6,0.1,3.8c-0.8,0.8-1.7,1.7-2.6,2.6c-1.4,1.3-26.6,2.3-45.4,19.4C886.1,89.8,884.8,103.4,884.8,103.8z"/>
<path class="st22" d="M949.7,96.9c-3.9-2-8.2-3.2-12.6-3.6c12.7-16,30.9-28,46.4-36.2l25.1,2.7h0C987.3,80.7,949.7,96.9,949.7,96.9z
	"/>
<path class="st20" d="M982.5,173.5c-1.3,4.2-3.4,8.1-6.1,11.6c-13.9,18.1-43.8,30.6-43.8,30.6l0,0c0.4,0.5,16.2,20,48.1,15.8
	c16.7-2.2,29.8-11.8,38.5-20.4c1.4-1.3,1.8-3.4,1-5.2c-0.5-1.2-1.5-2.2-2.7-2.7c-1.2-0.5-2.5-0.4-3.6,0.1l20.6-26.7l15.4-20l0,0
	C1020.2,157.5,982.5,173.5,982.5,173.5z"/>
<path class="st21" d="M932.6,215.7c0.4,0.5,16.2,20,48.1,15.8c16.7-2.2,29.8-11.8,38.5-20.4c1.4-1.3,1.8-3.4,1-5.2
	c-0.5-1.2-1.5-2.2-2.7-2.7c-1.2,0-2.4,0-3.6,0.1c-1.9,0.1-20,17.7-45.4,19.4C943.7,224.4,933,216,932.6,215.7z"/>
<path class="st22" d="M982.5,173.5c-1.3,4.2-3.4,8.1-6.1,11.6c20.3,1.9,41.6-3,58.2-8.6l15.4-20l0,0
	C1020.2,157.5,982.5,173.5,982.5,173.5z"/>
<path class="st3" d="M1046.9,157.6c-8.2,3.6-16.5,6.8-25.1,9.6c-8.4,2.5-16.9,4.3-25.6,5.3c-0.3,0-0.6,0.1-1,0.1l-16.1,0.9l-17.8,1
	l-33.8,2l-18.1-42.3l2.8-2.6l22-20.4l13-12.1c16.6-15.5,35.7-28.1,56.5-37.2c0.6-0.3,1.2-0.5,1.8-0.8c28.8-12.3,54.6-17.2,76.3-18.3
	c1.5-0.1,3.1-0.1,4.6-0.2c3.6-0.1,7.1-0.1,10.4,0c1.4,0,2.9,0.1,4.3,0.2c0.7,0,1.4,0.1,2.1,0.1c7.9,0.5,15.8,1.6,23.6,3.2
	c6.3,1.3,12.6,3.1,18.7,5.3c4.4,1.4,6.8,6.1,5.4,10.5c-0.1,0.4-0.3,0.7-0.4,1.1c-6,13.2-13.7,25.4-23.1,36.5c-0.5,0.6-1,1.2-1.5,1.8
	c-0.9,1.1-1.8,2.1-2.8,3.2c-2.2,2.5-4.6,5-7.2,7.6c-1,1-2.1,2.1-3.2,3.1C1097.1,130,1075.7,145.3,1046.9,157.6z"/>
<path class="st23" d="M945.3,175.5l-17.7,1c-1.3-1.6-2.5-3.2-3.6-4.9c-1-1.4-1.9-2.8-2.8-4.2c-3.1-5-5.7-10.3-7.7-15.8
	c-2-5.6-3.4-11.5-4-17.4l13-12.1c1.1,7.4,2.9,14.8,5.5,21.9c3,8.3,6.9,16.2,11.7,23.6c0.8,1.2,1.6,2.5,2.5,3.7
	C943.2,172.7,944.2,174.1,945.3,175.5z"/>
<path class="st4" d="M913.5,151.7c-2-5.6-3.4-11.5-4-17.4l13-12.1l11.8-11l13-12.1c16.6-15.5,35.7-28.1,56.5-37.2
	c0.6-0.3,1.2-0.5,1.8-0.8c39-16.7,72.5-19.8,97.7-18.1c7.9,0.5,15.8,1.6,23.6,3.2c-1.3,6,0.8,7.7-10,14.1c0,0-70.3-8.8-119.8,22.8
	c-45.3,29-27.9,39.1-27.9,39.1L928,144.1L913.5,151.7z"/>
<path class="st20" d="M898.9,166.6c-1.5,0.1-2.8-1.1-2.8-2.6c0-0.8,0.3-1.5,0.8-2c33-32.2,102.2-49.9,130.7-56
	c1.5-0.3,2.9,0.6,3.2,2.1c0.2,1.1-0.2,2.2-1.1,2.8C1005.5,127.2,944.9,165,898.9,166.6z"/>
<path class="st24" d="M1030.6,107.5L896.3,165c-0.5-1-0.2-2.2,0.6-3c33-32.2,102.2-49.9,130.7-56
	C1028.8,105.6,1030.1,106.3,1030.6,107.5z"/>
<circle class="st23" cx="1066" cy="92.4" r="25.8"/>
<path class="st0" d="M1074,111.1c-0.1,0-0.2,0.1-0.2,0.1c-10.2,4.2-21.9-0.5-26.4-10.6c0-0.1-0.1-0.2-0.1-0.2
	c-4.4-10.4,0.4-22.3,10.7-26.8c10.4-4.4,22.3,0.4,26.8,10.7C1089.2,94.7,1084.4,106.7,1074,111.1C1074,111.1,1074,111.1,1074,111.1z
	"/>
<path class="st25" d="M1078.8,108.2c8.8-7.1,10.1-19.9,3-28.7c-5.7-7.1-15.5-9.5-23.9-5.9c-0.5,0.2-1,0.5-1.5,0.7
	c10.7-3.5,22.2,2.3,25.8,13c2.7,8,0.1,16.9-6.5,22.2c-1,0.8-2.1,1.5-3.3,2.2c0.4-0.1,0.9-0.3,1.3-0.5c0.1,0,0.2-0.1,0.2-0.1
	C1075.7,110.4,1077.3,109.4,1078.8,108.2z"/>
<path class="st26" d="M1080.8,93c0,0-4.4,10.8-14.1,12.2c-10.6,1.6-15.7-5.8-16.9-15.5c0,0-3.3,8.9,5.4,16.7
	C1064.2,114.5,1079.3,107.8,1080.8,93z"/>
<path class="st20" d="M1127.5,99.4c-11.3-17.3-19.4-36.4-24.2-56.5c14.4,0.8,28.7,3.7,42.3,8.5c2.8,0.9,4.9,3.2,5.5,6
	c0.4,1.8,0.2,3.8-0.6,5.5C1144.7,76.2,1136.9,88.4,1127.5,99.4z"/>
<path class="st27" d="M1127.5,99.4c-11.3-17.3-19.4-36.4-24.2-56.5c14.4,0.8,28.7,3.7,42.3,8.5c2.8,0.9,4.9,3.2,5.5,6
	c-1.6-0.8-13.4-6-23-1.9C1117.9,60,1114.5,77.2,1127.5,99.4z"/>
</svg>
